<svg xmlns="http://www.w3.org/2000/svg" version="1.1" xmlns:xlink="http://www.w3.org/1999/xlink"
    xmlns:svgjs="http://svgjs.com/svgjs" width="1500.000000pt" height="1500.000000pt">
    <svg version="1.0" xmlns="http://www.w3.org/2000/svg" width="1500.000000pt"
        height="1500.000000pt" viewBox="0 0 1500.000000 1500.000000"
        preserveAspectRatio="xMidYMid meet">

        <g transform="translate(0.000000,1500.000000) scale(0.100000,-0.100000)" fill="#000000"
            stroke="none">
            <path
                d="M9167 14324 c-2 -2 -36 -6 -77 -10 -77 -6 -111 -11 -120 -15 -3 -1
-9 -3 -15 -4 -5 -1 -17 -4 -25 -8 -49 -18 -82 -26 -94 -21 -8 3 -17 1 -20 -4
-8 -14 -46 -3 -40 12 3 9 -30 11 -133 9 -203 -3 -410 -11 -478 -18 -33 -4 -85
-8 -115 -10 -30 -3 -77 -9 -105 -15 -27 -6 -61 -11 -75 -12 -14 -1 -28 -6 -31
-11 -4 -5 -23 -9 -43 -9 -20 0 -38 -3 -40 -7 -3 -4 -24 -8 -47 -10 -24 -1 -49
-7 -56 -13 -7 -5 -25 -11 -40 -13 -38 -5 -56 -9 -70 -18 -7 -5 -17 -5 -23 -2
-5 3 -10 1 -10 -5 0 -7 -6 -10 -12 -7 -7 2 -24 0 -38 -6 -14 -5 -29 -11 -35
-11 -28 -3 -153 -52 -176 -68 -14 -11 -40 -20 -56 -22 -17 -1 -39 -8 -48 -16
-9 -8 -23 -15 -31 -16 -22 -3 -74 -28 -74 -36 0 -3 -13 -9 -30 -13 -16 -4 -30
-10 -30 -14 0 -4 -16 -13 -35 -21 -19 -8 -35 -17 -35 -20 0 -4 -17 -15 -37
-26 -21 -10 -57 -33 -80 -51 -23 -18 -45 -33 -48 -33 -4 0 -26 -20 -49 -45
-24 -25 -47 -45 -52 -45 -15 -1 -60 -43 -73 -68 -7 -12 -15 -20 -20 -18 -8 6
-42 -30 -35 -37 2 -2 -2 -10 -11 -17 -8 -7 -15 -9 -15 -5 0 13 -47 -50 -54
-73 -4 -12 -12 -20 -17 -17 -5 4 -9 -1 -9 -9 0 -13 -28 -36 -43 -36 -2 0 -2
14 1 30 2 17 -1 37 -8 45 -9 11 -9 15 -1 15 7 0 10 4 7 9 -6 9 -16 100 -20
191 -3 53 -21 108 -40 121 -5 4 -5 15 -1 25 8 18 14 144 7 144 -2 0 -9 -15
-17 -32 -14 -36 -20 -67 -30 -173 -4 -38 -12 -78 -17 -89 -17 -31 -12 -253 7
-333 16 -70 15 -93 -6 -93 -18 0 -59 52 -59 74 0 12 -4 26 -10 32 -5 5 -13 34
-17 64 -10 81 -5 284 7 288 6 2 8 8 4 13 -8 13 17 119 27 113 5 -3 6 1 3 9 -3
8 2 20 11 27 8 7 15 18 15 24 0 7 18 33 41 58 39 45 41 49 44 127 2 45 3 81 1
81 -14 0 -66 -24 -66 -30 0 -5 -6 -15 -14 -22 -32 -32 -131 -261 -121 -279 4
-5 2 -9 -3 -9 -16 0 -32 -143 -27 -250 4 -107 22 -197 53 -261 l18 -35 -56 4
c-30 2 -60 8 -66 13 -6 5 -42 7 -80 4 -38 -2 -115 -6 -171 -9 -56 -2 -106 -6
-110 -9 -5 -3 -29 -8 -53 -11 -25 -4 -63 -9 -85 -12 -22 -3 -49 -9 -60 -14
-11 -5 -47 -16 -80 -24 -67 -16 -95 -27 -144 -57 -18 -11 -40 -18 -47 -15 -7
3 -16 0 -20 -5 -3 -6 -26 -19 -50 -29 -24 -11 -44 -24 -44 -30 0 -5 -9 -10
-20 -10 -27 0 -69 -20 -115 -55 -42 -32 -48 -36 -134 -86 -46 -28 -114 -80
-172 -134 -9 -8 -19 -15 -23 -15 -17 0 -117 -87 -122 -106 -3 -12 -22 -30 -42
-39 -22 -11 -52 -40 -72 -69 -19 -28 -45 -55 -58 -61 -12 -5 -25 -17 -28 -27
-3 -9 -38 -50 -78 -90 -41 -40 -75 -82 -77 -93 -2 -11 -14 -24 -26 -30 -12 -5
-29 -28 -38 -51 -9 -23 -23 -45 -30 -48 -8 -3 -15 -12 -15 -21 0 -8 -4 -15 -8
-15 -5 0 -17 -18 -28 -40 -10 -22 -24 -40 -30 -40 -10 0 -20 -17 -38 -60 -13
-30 -34 -61 -42 -63 -5 -1 -8 -7 -6 -13 1 -6 -5 -17 -13 -24 -8 -7 -15 -19
-15 -26 0 -8 -5 -14 -10 -14 -6 0 -30 -41 -54 -92 -37 -76 -43 -95 -34 -117 9
-25 3 -58 -25 -134 -5 -16 -10 -52 -9 -80 1 -87 -7 -135 -26 -141 -13 -5 -18
-20 -20 -68 -2 -46 -8 -67 -21 -78 -11 -8 -21 -28 -24 -45 -3 -16 -15 -64 -26
-105 -32 -111 -45 -283 -29 -360 6 -30 1 -45 -37 -110 -24 -41 -47 -87 -50
-102 -4 -16 -11 -28 -16 -28 -5 0 -9 -5 -9 -11 0 -6 -7 -17 -15 -25 -8 -9 -18
-33 -21 -55 -4 -21 -10 -39 -15 -39 -5 0 -9 -5 -9 -10 0 -6 -9 -29 -19 -53
-32 -70 -99 -289 -107 -347 -2 -14 -10 -52 -18 -85 -33 -134 -44 -248 -40
-413 4 -152 6 -168 34 -238 39 -98 61 -126 133 -171 44 -29 65 -50 84 -87 17
-33 21 -51 14 -55 -7 -5 -9 -25 -6 -54 4 -30 2 -47 -5 -47 -5 0 -10 -9 -10
-20 0 -12 -9 -40 -20 -63 -42 -86 -47 -123 -50 -387 -1 -132 2 -173 15 -203 8
-21 13 -42 11 -46 -6 -10 16 -71 25 -71 14 0 49 -68 49 -94 0 -15 7 -29 15
-32 8 -4 15 -14 15 -24 0 -10 4 -20 10 -22 6 -2 5 -28 -4 -73 -8 -38 -17 -99
-20 -135 -3 -36 -9 -77 -13 -90 -18 -56 -2 -317 21 -335 15 -12 28 -56 32
-110 1 -22 14 -63 28 -91 14 -29 26 -55 26 -60 0 -13 41 -93 51 -100 5 -3 9
-13 9 -23 0 -32 157 -216 229 -269 12 -9 64 -57 115 -107 178 -175 363 -350
380 -360 10 -6 26 -43 39 -91 12 -45 27 -87 33 -95 7 -8 17 -39 23 -69 7 -30
18 -65 26 -77 13 -20 13 -22 0 -17 -11 5 -13 2 -9 -10 3 -9 12 -16 20 -16 7 0
11 -6 8 -14 -3 -8 3 -19 15 -26 13 -6 21 -21 21 -35 0 -14 5 -25 11 -25 5 0 7
-4 4 -10 -3 -5 1 -10 10 -10 9 0 13 -4 10 -10 -3 -5 -1 -10 4 -10 6 0 11 -6
11 -14 0 -23 112 -129 169 -159 60 -33 73 -30 42 9 -27 35 -27 44 5 44 27 0
27 12 4 65 -10 23 -25 131 -22 158 2 20 -2 21 -28 7 -20 -11 -39 3 -20 15 5 3
8 16 4 29 -4 17 1 25 21 34 29 14 45 9 45 -14 0 -8 9 -27 20 -42 11 -15 22
-38 25 -52 3 -14 12 -54 21 -90 9 -36 18 -76 20 -90 3 -14 9 -38 14 -55 5 -16
19 -82 30 -145 22 -120 49 -258 53 -275 11 -38 20 -55 28 -55 6 0 8 -4 5 -9
-6 -10 16 -21 40 -21 9 0 12 5 8 12 -4 7 -3 8 4 4 7 -4 12 -13 12 -21 0 -7 12
-16 28 -19 42 -8 102 -5 102 6 0 5 5 6 10 3 7 -4 9 2 5 18 -4 14 -1 37 7 52
l14 27 25 -36 c13 -20 30 -36 37 -36 6 0 12 -8 12 -18 0 -20 31 -52 68 -71 12
-6 22 -17 22 -24 0 -12 149 -107 169 -107 6 0 11 -4 11 -10 0 -5 9 -10 19 -10
11 0 23 -4 26 -10 3 -5 15 -10 25 -10 10 0 25 -7 34 -15 8 -8 22 -15 32 -15 9
0 48 -18 86 -40 39 -22 72 -40 75 -40 7 0 107 -46 148 -68 71 -38 126 -5 127
77 0 61 16 57 22 -5 5 -49 25 -94 43 -94 7 0 13 -8 13 -19 0 -10 11 -49 25
-87 14 -38 30 -95 36 -127 7 -31 16 -60 20 -63 5 -3 9 -13 9 -23 0 -10 10 -40
21 -66 12 -26 22 -67 23 -90 2 -23 6 -47 10 -53 4 -7 4 -17 1 -23 -4 -5 -8
-40 -9 -77 -1 -37 -4 -71 -7 -77 -3 -5 -7 -44 -8 -85 -4 -111 -53 -300 -86
-331 -38 -37 -90 -77 -125 -95 -19 -11 -52 -37 -73 -59 -22 -22 -42 -40 -45
-40 -4 0 -53 -47 -110 -103 -56 -57 -107 -100 -112 -97 -5 3 -12 0 -17 -7 -4
-7 -21 -19 -38 -27 -16 -8 -50 -24 -75 -36 -41 -21 -90 -36 -130 -40 -8 -1
-25 -7 -37 -13 -12 -7 -28 -12 -35 -12 -7 0 -31 -10 -53 -21 -22 -12 -56 -24
-75 -26 -51 -6 -62 -9 -95 -23 -16 -7 -52 -14 -80 -16 -71 -3 -128 -12 -160
-24 -14 -5 -30 -8 -35 -5 -5 3 -11 1 -15 -5 -3 -5 -17 -10 -31 -10 -14 0 -34
-4 -44 -10 -10 -5 -38 -12 -62 -15 -52 -6 -117 -13 -178 -21 -25 -3 -76 -8
-115 -10 -94 -5 -90 -5 -175 -16 -41 -6 -97 -12 -125 -13 -27 -2 -63 -6 -80
-9 -31 -7 -62 -11 -195 -22 -41 -3 -80 -11 -87 -16 -7 -5 -17 -7 -23 -3 -5 3
-15 3 -20 0 -6 -4 -41 -8 -78 -10 -83 -4 -296 -44 -300 -56 -2 -5 -8 -7 -13
-3 -5 3 -24 0 -43 -6 -18 -6 -46 -12 -62 -14 -16 -3 -42 -10 -59 -16 -16 -7
-51 -14 -76 -15 -25 -2 -64 -8 -87 -14 -33 -9 -42 -17 -47 -40 -6 -29 -29 -46
-46 -36 -5 3 -17 2 -26 -4 -10 -5 -52 -12 -93 -15 -41 -3 -129 -19 -195 -36
-66 -16 -130 -30 -143 -30 -13 0 -37 -8 -55 -17 -18 -9 -45 -18 -62 -20 -16
-2 -52 -10 -80 -18 -27 -8 -71 -19 -97 -26 -26 -6 -53 -18 -59 -25 -6 -8 -24
-14 -40 -14 -16 0 -55 -13 -86 -30 -31 -16 -66 -30 -79 -30 -13 0 -24 -4 -24
-10 0 -5 -7 -10 -16 -10 -21 0 -134 -52 -134 -62 0 -4 -16 -10 -35 -14 -25 -4
-38 -14 -47 -35 -7 -17 -23 -32 -35 -35 -13 -4 -23 -10 -23 -15 0 -5 -24 -33
-53 -62 -29 -28 -80 -83 -112 -122 -33 -38 -63 -71 -67 -73 -5 -2 -8 -8 -8
-13 0 -5 -16 -33 -35 -63 -19 -30 -40 -75 -47 -100 -7 -25 -15 -46 -19 -46 -4
0 -10 -13 -14 -29 -3 -16 -13 -35 -21 -42 -8 -6 -14 -19 -14 -27 0 -9 -14 -46
-32 -82 -17 -36 -35 -73 -40 -82 -4 -10 -8 -24 -8 -32 0 -8 -6 -16 -14 -19 -8
-3 -20 -25 -27 -48 -7 -22 -19 -43 -26 -46 -7 -3 -13 -11 -13 -19 0 -7 -16
-38 -35 -68 -19 -30 -35 -61 -35 -68 0 -7 -14 -40 -30 -73 -16 -33 -30 -64
-30 -68 0 -8 -28 -73 -56 -131 -8 -16 -14 -35 -14 -42 0 -7 -16 -46 -35 -87
-19 -41 -35 -79 -35 -85 0 -6 -9 -27 -19 -46 -11 -19 -17 -36 -15 -39 6 -6
-18 -59 -32 -72 -7 -5 -17 -28 -24 -50 -7 -22 -19 -48 -28 -57 -14 -17 -12
-18 31 -18 37 0 47 4 52 20 3 11 11 20 16 20 5 0 9 7 9 16 0 8 12 41 26 72 14
31 38 84 53 117 15 33 43 94 61 135 18 41 38 82 45 90 7 8 16 29 20 47 3 17
12 37 20 43 8 6 17 25 20 41 4 16 11 29 16 29 5 0 9 8 9 19 0 10 7 24 15 31 8
7 15 21 15 31 0 11 5 19 10 19 6 0 10 7 10 15 0 8 4 23 9 33 11 21 34 75 35
82 1 3 11 25 23 50 11 25 40 95 63 155 84 218 97 246 111 223 8 -13 4 -75 -7
-110 -9 -29 1 -21 30 23 15 22 30 38 33 35 5 -5 -38 -137 -48 -146 -3 -3 -9
-17 -12 -31 -4 -14 -16 -36 -27 -49 -11 -13 -20 -31 -20 -42 0 -10 -4 -18 -10
-18 -5 0 -10 -9 -10 -20 0 -11 -4 -20 -10 -20 -5 0 -7 -7 -4 -15 4 -8 1 -15
-5 -15 -6 0 -11 -9 -11 -19 0 -11 -15 -49 -34 -86 -19 -36 -35 -69 -35 -73 1
-22 -26 -80 -34 -75 -6 3 -7 1 -3 -6 4 -6 2 -18 -4 -26 -7 -8 -10 -15 -7 -15
3 0 -1 -16 -9 -35 -19 -47 -9 -45 14 3 21 42 45 85 52 92 7 7 44 83 70 145 12
28 32 71 46 97 13 27 24 54 24 62 0 8 4 16 9 18 6 2 12 15 15 30 2 15 11 40
20 55 8 16 29 74 46 130 27 89 31 111 25 167 -8 72 10 153 48 210 12 18 29 47
39 64 22 41 67 70 78 52 6 -10 14 -5 29 21 12 19 21 30 21 25 0 -5 9 3 20 17
11 14 36 31 55 37 19 6 35 15 35 19 0 3 21 13 48 20 26 8 54 18 62 21 15 8
231 60 262 64 10 1 21 5 24 9 4 4 22 7 39 7 17 0 35 3 39 7 8 8 19 10 101 19
33 3 64 9 70 12 5 3 18 7 30 8 160 18 378 55 425 72 8 3 18 4 23 4 4 -1 7 2 7
8 0 5 8 10 17 10 19 0 72 16 119 36 30 13 134 44 164 48 8 2 35 9 60 16 25 7
50 13 55 14 6 1 35 9 65 18 30 9 84 21 120 27 36 7 83 17 105 22 48 11 83 16
155 24 30 3 80 10 110 15 30 5 62 8 70 7 16 -2 170 13 205 19 35 7 219 23 245
22 31 -2 115 11 155 22 71 22 256 33 271 17 13 -12 -12 -28 -47 -32 -19 -1
-45 -5 -59 -8 -14 -4 -47 -9 -75 -12 -27 -4 -63 -9 -80 -11 -59 -8 -132 -15
-230 -20 -183 -9 -225 -13 -278 -23 -29 -5 -88 -12 -132 -15 -44 -3 -107 -10
-140 -15 -33 -5 -73 -12 -90 -14 -31 -5 -142 -30 -206 -47 -20 -6 -47 -10 -61
-10 -13 0 -28 -4 -33 -9 -9 -8 -106 -34 -180 -47 -16 -3 -32 -9 -35 -12 -6 -8
-84 -37 -165 -62 -33 -10 -78 -26 -99 -35 -38 -16 -50 -20 -105 -31 -13 -3
-31 -9 -41 -14 -9 -5 -36 -11 -60 -14 -25 -3 -67 -10 -95 -16 -27 -5 -63 -12
-80 -14 -16 -2 -70 -11 -120 -20 -49 -9 -106 -19 -125 -22 -19 -3 -46 -8 -60
-10 -14 -3 -32 -7 -41 -8 -8 -1 -28 -7 -45 -13 -31 -13 -140 -32 -216 -39 -53
-5 -73 -12 -133 -49 -22 -13 -46 -27 -54 -31 -8 -4 -27 -21 -42 -37 -16 -17
-29 -26 -29 -22 0 4 -9 0 -19 -9 -18 -17 -20 -17 -29 1 -10 16 -12 15 -21 -10
-6 -16 -11 -32 -11 -37 0 -5 -13 -30 -29 -54 -15 -25 -34 -67 -40 -93 -7 -27
-17 -56 -22 -65 -14 -27 -11 -46 5 -25 18 24 35 21 31 -5 -5 -39 -24 -114 -36
-144 -13 -32 -18 -50 -22 -79 -1 -11 -8 -26 -14 -33 -7 -7 -13 -21 -13 -31 0
-34 -70 -199 -190 -446 -38 -77 -74 -159 -81 -183 -7 -23 -16 -42 -21 -42 -4
0 -8 -7 -8 -15 0 -8 -25 -66 -55 -127 -30 -62 -55 -120 -55 -129 0 -9 -3 -19
-7 -23 -4 -4 -15 -27 -24 -52 l-17 -44 3423 0 c2985 0 3429 2 3471 15 58 18
145 20 161 4 9 -9 16 -8 28 5 17 16 42 20 106 17 20 -2 40 2 43 7 8 13 46 3
46 -12 0 -7 -5 -17 -12 -24 -9 -9 484 -11 2232 -10 l2245 3 17 35 c10 19 27
42 38 52 11 9 20 28 20 42 0 13 5 28 11 32 13 8 7 -85 -9 -133 l-11 -33 745 0
c593 0 744 3 738 13 -4 6 -14 20 -23 30 -8 10 -16 23 -17 30 -8 37 -14 55 -29
84 -9 18 -14 37 -10 43 3 5 -1 20 -9 32 -9 12 -16 33 -16 45 0 13 -4 23 -8 23
-4 0 -9 14 -10 32 -2 17 -6 36 -11 42 -4 6 -20 52 -35 101 -30 99 -74 195 -93
202 -7 3 -13 11 -13 19 0 7 -11 25 -25 40 -14 15 -25 33 -25 40 0 8 -8 22 -18
32 -9 9 -46 76 -80 147 -72 147 -64 133 -132 242 -28 45 -54 83 -58 85 -20 8
-52 79 -52 116 0 37 2 40 23 34 12 -3 26 -11 30 -18 4 -8 39 -52 77 -99 39
-47 70 -89 70 -95 0 -5 4 -10 9 -10 18 0 149 -236 137 -247 -3 -3 1 -11 9 -17
9 -6 17 -21 20 -33 6 -35 21 -57 29 -44 12 19 42 12 54 -11 7 -13 16 -30 21
-38 28 -44 71 -143 65 -151 -3 -5 0 -17 7 -26 8 -8 19 -29 25 -47 7 -17 21
-55 33 -85 11 -30 18 -58 15 -62 -3 -5 -1 -9 4 -9 7 0 29 -77 46 -163 2 -7 6
-24 10 -39 11 -39 24 -149 26 -215 0 -23 1 -23 154 -23 133 0 155 2 160 16 4
9 0 22 -8 28 -7 6 -19 28 -26 48 -6 21 -16 40 -21 43 -5 4 -9 17 -9 31 0 13
-4 24 -9 24 -5 0 -12 11 -15 25 -4 14 -11 25 -16 25 -5 0 -13 18 -16 40 -4 26
-13 41 -25 45 -13 4 -19 16 -19 35 0 16 -5 32 -10 35 -6 4 -8 15 -5 26 4 13 2
19 -9 19 -9 0 -16 8 -16 19 0 11 -3 21 -7 23 -14 6 -63 87 -63 103 0 9 -7 18
-15 21 -8 4 -15 12 -15 19 0 6 -8 20 -19 29 -10 9 -21 31 -25 47 -3 17 -14 43
-24 57 -10 15 -28 52 -41 82 -13 30 -28 64 -34 75 -11 22 -26 52 -39 77 -4 10
-8 24 -8 31 0 8 -9 22 -19 31 -11 10 -17 24 -14 32 3 9 -4 24 -16 35 -11 11
-21 28 -21 39 0 10 -4 22 -10 25 -5 3 -10 15 -10 26 0 10 -4 27 -9 37 -5 9
-24 48 -42 87 -34 69 -63 104 -86 105 -7 0 -17 9 -22 19 -8 13 -20 18 -42 17
-18 -1 -33 3 -36 11 -3 7 -10 13 -15 13 -5 0 -35 26 -67 58 -39 39 -86 72
-151 106 -52 26 -102 54 -110 61 -8 7 -40 20 -70 29 -203 57 -270 73 -275 68
-3 -4 -9 -1 -13 5 -8 13 -108 44 -116 36 -3 -4 -6 -1 -6 6 0 8 -8 11 -20 8
-11 -3 -20 -2 -20 3 0 7 -30 18 -75 26 -11 2 -40 9 -65 14 -25 6 -56 12 -70
14 -14 2 -38 8 -53 15 -16 6 -37 11 -48 11 -11 0 -49 6 -85 12 -55 11 -64 16
-60 31 5 21 -40 42 -99 45 -61 3 -114 13 -120 22 -3 5 -23 11 -44 15 -22 4
-45 13 -52 21 -6 8 -18 14 -25 14 -8 0 -22 4 -32 9 -35 18 -129 51 -186 66
-33 8 -78 23 -100 34 -23 10 -71 33 -108 50 -37 17 -71 31 -76 31 -5 0 -23 7
-38 15 -16 8 -43 15 -59 15 -17 0 -35 4 -40 9 -10 10 -76 28 -132 36 -18 3
-60 11 -93 19 -33 8 -60 12 -60 10 0 -3 -10 0 -21 7 -12 6 -36 13 -53 16 -17
3 -32 9 -34 14 -2 4 -19 11 -38 15 -19 3 -34 10 -34 14 0 5 -15 14 -34 20 -60
19 -310 150 -337 176 -14 13 -29 24 -33 24 -5 0 -17 10 -28 22 -13 15 -22 18
-29 11 -16 -16 -61 -4 -55 16 4 10 -6 24 -29 39 -41 26 -53 27 -77 6 -16 -16
-22 -15 -88 15 -39 17 -81 31 -94 31 -14 0 -27 4 -30 9 -6 9 -140 60 -231 87
-33 10 -62 20 -65 23 -5 6 -109 44 -165 61 -68 20 -105 35 -105 42 0 5 -13 8
-30 8 -16 0 -30 3 -30 8 0 4 -10 12 -21 17 -26 12 -51 75 -53 133 -1 25 -7 47
-16 52 -15 9 -17 53 -5 83 4 10 9 26 10 35 1 10 9 35 19 56 10 22 18 58 18 81
0 40 2 43 63 84 63 41 119 94 232 218 31 35 61 63 67 63 7 0 18 9 26 20 8 11
20 20 26 20 7 0 15 7 18 16 3 9 12 14 19 11 8 -3 18 7 25 23 7 15 28 39 47 51
19 13 35 29 35 35 0 6 11 17 25 24 14 7 42 33 62 57 20 24 41 43 45 43 7 0 48
36 48 43 0 1 43 47 95 102 52 55 95 105 95 112 0 6 9 15 20 18 11 3 20 12 20
20 0 7 24 38 53 68 63 67 169 202 179 228 4 11 19 32 33 47 14 15 28 37 31 50
4 12 10 22 14 22 4 0 15 15 25 33 39 75 46 87 53 87 4 0 16 17 27 38 11 20 22
39 26 42 3 3 18 32 34 64 15 33 34 66 41 74 18 17 47 72 38 72 -3 0 12 24 33
52 21 29 36 54 35 56 -2 1 4 22 14 45 9 23 18 47 20 52 1 6 11 38 23 72 25 74
26 85 5 58 -15 -20 -16 -20 -12 4 2 14 11 25 21 27 22 3 30 10 34 27 19 85 27
113 33 117 6 5 37 152 59 287 11 70 7 603 -6 788 -10 149 -8 280 7 410 6 55
13 120 16 144 3 24 9 51 13 60 5 9 7 24 6 34 -2 9 1 17 6 17 5 0 7 14 5 30 -2
17 0 30 5 30 4 0 11 21 15 48 3 26 12 54 20 62 7 8 13 17 13 20 0 3 7 22 15
42 9 21 16 40 16 44 0 3 11 19 25 36 14 16 25 35 25 42 0 7 8 21 18 32 24 27
62 92 62 109 0 7 5 15 11 17 5 2 11 10 13 18 4 20 18 54 25 60 17 15 71 132
71 154 0 14 4 26 9 26 9 0 40 78 46 117 2 12 6 27 10 32 3 6 1 11 -5 11 -6 0
-5 11 5 30 9 17 13 30 10 30 -6 0 -51 -38 -77 -65 l-19 -20 7 20 c4 11 10 25
14 30 5 6 10 28 13 50 8 68 43 192 62 215 6 8 22 40 34 70 31 77 36 88 64 150
42 90 66 157 60 164 -4 3 2 13 13 21 10 8 16 15 11 15 -4 0 -1 13 8 29 8 17
12 37 9 45 -3 9 -2 16 3 16 17 0 51 146 58 252 2 37 11 82 20 99 25 46 10 47
-21 0 -14 -23 -29 -41 -31 -41 -2 0 -2 4 1 8 2 4 1 14 -4 22 -5 8 -2 22 7 37
9 13 17 34 19 46 5 35 12 66 19 77 3 5 1 18 -4 29 -9 17 -14 18 -36 8 -14 -7
-31 -24 -38 -39 -6 -16 -15 -28 -18 -28 -4 0 -10 33 -14 73 -3 41 -8 86 -9
100 -2 15 0 27 3 27 3 0 7 24 9 53 1 28 4 75 7 102 3 28 8 97 10 155 6 119 9
147 20 174 5 10 3 46 -3 79 -6 33 -9 65 -5 70 3 6 1 7 -5 3 -7 -4 -12 -16 -12
-27 0 -10 -4 -19 -10 -19 -5 0 -10 -6 -10 -14 0 -7 -12 -22 -27 -31 -24 -16
-27 -16 -38 -1 -7 9 -22 16 -34 16 -14 0 -21 6 -21 19 0 11 -5 23 -10 26 -6 4
-7 23 -4 45 4 27 2 45 -10 61 -22 33 -20 56 9 85 14 14 27 35 31 48 3 13 18
36 34 51 l29 27 27 -21 c15 -11 33 -21 40 -21 7 0 29 -9 48 -21 41 -24 46 -19
15 14 -11 12 -27 36 -34 52 -7 17 -47 65 -89 109 -42 43 -76 82 -76 86 0 4
-10 10 -21 13 -13 4 -19 11 -16 19 2 8 -1 25 -8 38 -12 22 -10 25 24 43 79 42
126 70 131 76 3 4 29 24 58 45 28 21 52 41 52 45 0 4 18 26 40 49 24 25 40 50
40 65 0 13 9 32 20 42 11 10 20 24 20 32 0 7 5 13 10 13 6 0 3 11 -7 24 -17
23 -23 24 -60 9 -10 -3 -26 -8 -37 -10 -15 -3 -16 0 -7 10 8 11 6 20 -10 38
-11 13 -24 29 -27 34 -13 19 -47 31 -94 34 -51 2 -74 -15 -33 -25 14 -3 25
-10 25 -15 0 -5 5 -9 11 -9 27 0 144 -103 135 -119 -4 -5 -2 -12 4 -16 37 -23
-28 -104 -90 -112 -37 -5 -41 -4 -40 13 7 59 1 74 -28 74 -42 0 -131 48 -138
74 -5 21 -60 66 -81 66 -6 0 -13 3 -15 8 -1 4 -25 18 -51 31 -66 33 -132 86
-146 117 -6 15 -10 28 -8 30 2 3 -18 27 -45 56 -26 28 -48 57 -48 64 0 7 -6
17 -14 21 -25 15 -70 133 -51 133 19 0 49 -27 87 -78 23 -31 56 -71 72 -88 17
-17 47 -51 66 -76 38 -50 64 -66 155 -97 33 -11 78 -27 100 -37 65 -28 71 -25
27 14 -23 21 -42 43 -42 50 0 6 -6 12 -14 12 -8 0 -18 9 -21 20 -3 11 -13 20
-21 20 -8 0 -14 5 -14 11 0 5 -4 7 -10 4 -5 -3 -10 0 -10 8 0 14 -103 97 -120
97 -5 0 -13 6 -17 13 -8 13 -86 64 -90 59 -2 -1 -10 -2 -19 -2 -16 0 -42 53
-47 97 -2 16 -8 37 -14 48 -6 11 -18 46 -27 77 -9 31 -23 64 -32 72 -8 9 -13
16 -9 16 8 0 -77 163 -90 172 -5 4 -6 8 -2 8 4 0 -2 10 -14 23 -12 12 -46 55
-76 95 -29 39 -58 72 -64 72 -6 0 -8 4 -5 9 7 11 -47 71 -63 71 -6 0 -11 5
-11 11 0 13 -120 129 -133 129 -5 0 -16 8 -23 17 -22 31 -24 8 -3 -31 11 -21
18 -40 16 -42 -5 -5 -54 50 -100 114 -21 28 -42 52 -47 52 -5 0 -28 18 -52 39
-41 37 -42 41 -32 70 11 28 10 31 -15 47 -42 27 -80 68 -81 86 0 9 -10 20 -22
24 -13 4 -41 18 -63 32 -22 15 -44 27 -50 28 -5 1 -40 20 -77 43 -37 23 -72
41 -77 41 -5 0 -15 7 -22 17 -8 9 -27 22 -44 30 -16 8 -57 32 -90 53 -33 21
-85 51 -115 66 -30 15 -57 30 -60 33 -3 3 -23 14 -45 24 -22 10 -51 26 -65 35
-14 9 -27 17 -30 17 -7 1 -79 33 -114 51 -16 8 -57 22 -90 30 -34 9 -79 20
-101 25 -22 6 -67 11 -100 12 -46 2 -60 6 -63 18 -6 34 104 46 238 25 67 -10
216 -56 250 -77 8 -5 24 -13 35 -18 94 -42 134 -62 145 -76 7 -8 21 -15 31
-15 11 0 19 -4 19 -10 0 -5 7 -10 16 -10 9 0 39 -16 65 -35 27 -19 56 -35 64
-35 8 0 15 -4 15 -9 0 -4 28 -25 63 -46 34 -21 78 -51 97 -67 19 -15 40 -28
47 -28 7 0 13 -4 13 -10 0 -5 8 -10 18 -10 10 0 29 -11 41 -24 13 -13 34 -27
47 -30 13 -4 24 -11 24 -16 0 -6 7 -10 15 -10 8 0 23 -8 33 -17 10 -10 41 -36
70 -58 50 -37 51 -40 31 -51 -20 -10 -20 -12 17 -42 21 -18 44 -32 50 -32 17
0 74 -30 74 -40 0 -4 7 -10 15 -14 11 -4 14 1 11 22 -4 37 -36 103 -53 109 -7
3 -10 10 -7 15 8 12 -51 75 -88 94 -16 8 -28 21 -28 29 0 8 -7 15 -15 15 -8 0
-15 3 -15 8 0 4 -18 16 -40 26 -22 11 -40 25 -40 33 0 7 -6 13 -14 13 -7 0
-29 15 -48 33 -59 53 -78 67 -93 67 -8 0 -15 5 -15 10 0 6 -7 10 -15 10 -8 0
-15 4 -15 10 0 12 -55 41 -64 33 -3 -4 -6 -1 -6 5 0 7 -5 12 -10 12 -6 0 -33
16 -60 35 -28 20 -64 38 -80 42 -17 3 -30 10 -30 15 0 5 -4 7 -9 3 -6 -3 -14
3 -20 12 -6 10 -11 14 -11 10 0 -5 -12 0 -27 10 -35 24 -95 49 -151 63 -23 6
-40 15 -37 20 4 6 -2 11 -12 12 -10 0 -23 2 -29 2 -6 1 -18 6 -25 12 -13 10
-48 21 -89 27 -8 1 -17 5 -20 9 -3 4 -32 9 -65 11 -38 3 -63 10 -70 21 -8 10
-36 18 -83 22 -40 4 -72 10 -72 15 0 4 24 10 53 13 127 13 216 19 265 19 46
-1 51 1 40 14 -10 13 -8 19 15 39 15 13 27 28 27 35 0 7 10 9 28 5 15 -3 38
-9 52 -12 14 -3 47 -12 74 -20 27 -7 52 -14 55 -14 12 0 -82 50 -105 56 -13 3
-24 10 -24 15 0 5 -7 5 -17 2 -11 -4 -14 -3 -9 5 4 7 1 12 -9 12 -22 0 -65 30
-65 46 0 11 -39 24 -90 29 -8 1 -30 9 -48 19 -19 10 -36 15 -40 12 -3 -3 -15
0 -26 7 -26 16 -112 38 -146 37 -14 -1 -52 2 -85 5 -71 7 -273 13 -278 9z
m-636 -93 c-7 -5 -21 -6 -31 -4 -10 3 -21 0 -25 -7 -5 -8 12 -10 66 -5 41 4
76 8 79 8 13 1 60 -16 60 -22 0 -3 -19 -15 -42 -25 -52 -24 -42 -21 -103 -30
-27 -4 -63 -9 -80 -12 -16 -3 -79 -7 -140 -9 -105 -5 -190 -12 -190 -16 0 -1
-11 -3 -25 -5 -111 -15 -169 -25 -194 -34 -16 -5 -42 -10 -57 -10 -15 0 -30
-4 -33 -9 -3 -5 -23 -12 -43 -17 -41 -8 -40 -8 -63 -16 -8 -3 -35 -11 -60 -19
-25 -7 -49 -16 -55 -19 -11 -8 -74 -29 -90 -31 -5 0 -14 -4 -20 -9 -5 -4 -28
-13 -50 -19 -54 -17 -57 -18 -240 -107 -88 -43 -189 -96 -225 -119 -36 -22
-78 -47 -95 -55 -16 -8 -45 -25 -62 -38 -18 -14 -33 -21 -33 -17 0 5 -8 1 -19
-9 -10 -9 -29 -19 -42 -21 -13 -3 -25 -9 -27 -15 -2 -5 -8 -10 -14 -10 -5 0
-29 -13 -53 -30 -24 -16 -55 -34 -69 -40 -14 -5 -26 -13 -26 -18 0 -10 -60
-46 -66 -39 -15 15 76 137 102 137 8 0 17 7 20 15 4 8 12 15 20 15 8 0 14 4
14 9 0 12 88 75 158 113 31 17 70 41 85 54 16 13 37 24 47 24 11 0 23 6 27 13
4 7 26 22 48 34 22 11 54 28 70 36 17 9 44 22 60 30 17 7 39 18 50 25 11 6 37
18 58 27 20 8 54 23 75 32 20 9 47 18 59 19 12 1 32 9 45 17 13 7 50 22 83 31
33 10 73 24 88 32 16 8 41 14 56 14 15 0 32 5 38 11 6 6 26 13 45 14 18 1 46
7 61 14 16 6 54 13 85 16 31 3 84 12 117 20 33 7 80 14 105 16 25 1 49 5 54 7
11 6 81 13 125 13 18 0 41 4 51 9 9 5 20 6 24 3 10 -11 37 -12 31 -2 -4 5 8 7
24 5 17 -2 28 0 26 5 -3 4 23 14 57 22 63 14 84 13 59 -2z m949 -54 c14 -3 45
-11 70 -18 l45 -13 -85 -8 c-47 -4 -112 -9 -145 -11 -33 -2 -65 -6 -72 -10 -6
-4 -44 -5 -84 -3 -40 3 -77 2 -83 -1 -5 -4 -64 -8 -130 -11 -67 -3 -133 -5
-148 -6 -16 0 -28 -4 -28 -7 0 -3 -37 -9 -82 -12 -109 -8 -117 -10 -174 -45
-67 -40 -104 -49 -104 -23 0 12 12 23 33 31 17 8 76 33 129 57 54 23 104 40
113 37 9 -4 35 -1 58 5 23 6 69 14 102 16 33 3 76 7 95 10 19 2 73 7 119 9 46
3 85 6 87 8 4 5 256 1 284 -5z m-3845 -995 c5 -4 30 -8 55 -10 59 -5 88 -21
40 -22 -19 0 -64 -8 -100 -16 -36 -8 -74 -15 -85 -15 -10 0 -24 -4 -30 -8 -5
-5 -30 -11 -55 -15 -88 -13 -161 -48 -214 -102 l-35 -36 -17 26 c-16 25 -16
28 11 66 31 45 61 64 160 103 100 40 229 53 270 29z m-435 -232 c0 -5 -12 -17
-27 -27 -16 -10 -30 -20 -33 -23 -3 -3 -18 -14 -35 -24 -32 -21 -33 -22 -85
-66 -19 -16 -39 -30 -44 -30 -6 0 -24 -14 -40 -30 -17 -17 -44 -41 -60 -55
-71 -61 -153 -134 -200 -178 -28 -27 -68 -63 -90 -80 -21 -18 -44 -38 -50 -45
-6 -7 -51 -55 -101 -107 -179 -187 -208 -223 -155 -195 15 8 25 9 32 2 7 -7
-8 -32 -45 -75 -104 -122 -216 -312 -252 -427 -10 -30 -23 -62 -30 -70 -15
-19 -45 -80 -45 -93 0 -6 -11 -25 -25 -43 -14 -18 -25 -42 -25 -53 0 -11 -6
-26 -13 -33 -21 -21 -39 -57 -32 -68 3 -5 1 -11 -5 -15 -5 -3 -10 -15 -10 -26
0 -10 -5 -29 -12 -42 -24 -47 -28 -57 -28 -72 0 -8 -4 -23 -9 -33 -29 -56 -65
-201 -65 -263 0 -38 -4 -69 -8 -69 -5 0 -7 3 -6 8 1 4 -4 36 -12 71 -14 65
-16 137 -7 201 16 106 21 127 33 145 8 11 14 26 14 35 0 8 7 28 15 44 8 15 15
33 15 38 0 5 7 16 15 24 8 9 15 25 15 37 0 12 30 81 66 152 36 72 75 148 86
170 11 22 30 53 42 70 22 32 39 58 56 90 6 11 19 34 30 50 44 68 44 68 18 52
-13 -9 -34 -16 -48 -17 -74 -6 -78 10 -11 46 50 26 97 78 106 117 4 14 20 40
35 59 16 18 39 46 52 61 13 15 33 39 45 52 12 14 33 40 47 58 14 18 37 39 51
47 14 7 25 19 25 27 0 7 4 13 8 13 8 0 111 98 143 136 22 27 176 167 221 201
33 26 126 99 155 123 7 6 14 10 17 10 3 0 25 14 50 30 61 41 177 100 199 100
9 0 17 -4 17 -10z m-645 -660 c-10 -11 -22 -20 -28 -20 -5 0 1 9 14 20 31 25
37 25 14 0z m7195 -795 c0 -8 -4 -15 -10 -15 -5 0 -10 7 -10 15 0 8 5 15 10
15 6 0 10 -7 10 -15z m30 1 c0 -3 -4 -8 -10 -11 -5 -3 -10 -1 -10 4 0 6 5 11
10 11 6 0 10 -2 10 -4z m-1866 -52 c3 -8 2 -12 -4 -9 -6 3 -10 10 -10 16 0 14
7 11 14 -7z m-569 -274 c4 -6 15 -8 26 -5 11 4 19 2 19 -4 0 -6 11 -11 24 -11
14 0 31 -8 38 -19 7 -10 33 -30 58 -44 25 -14 44 -31 43 -36 -2 -6 6 -11 17
-11 11 0 20 -4 20 -10 0 -5 16 -12 35 -16 19 -3 33 -10 30 -14 -7 -11 5 -18
40 -24 16 -3 32 -11 37 -18 4 -7 8 -10 8 -5 0 4 17 -3 38 -16 20 -12 71 -31
112 -41 41 -11 80 -23 86 -27 6 -5 22 -9 35 -8 36 1 181 -10 206 -16 12 -3 24
-1 27 4 3 5 21 9 38 10 43 1 87 7 93 13 3 2 -18 10 -45 17 -28 7 -52 17 -56
22 -3 5 -14 9 -24 9 -10 0 -21 4 -24 9 -3 5 23 3 58 -3 34 -7 107 -11 162 -10
97 2 145 12 159 34 3 5 12 7 18 3 11 -7 20 -9 67 -12 11 0 20 -8 20 -16 0 -8
5 -15 10 -15 6 0 10 -10 10 -23 0 -15 9 -29 25 -37 14 -7 25 -17 25 -22 0 -4
7 -8 15 -8 8 0 15 -3 15 -7 0 -11 50 -33 74 -33 19 0 19 1 -3 21 -33 31 -24
61 19 66 19 2 40 10 46 18 7 9 26 17 43 20 25 3 35 -2 56 -28 14 -18 31 -38
37 -46 9 -11 9 -16 0 -19 -7 -2 -12 -8 -12 -14 0 -15 28 -39 42 -36 7 2 12 -2
11 -9 -2 -7 4 -10 13 -6 17 6 113 -82 114 -104 0 -7 14 -27 31 -44 l32 -32
-44 -41 c-24 -23 -55 -48 -69 -57 l-25 -16 24 -42 c12 -23 21 -45 18 -48 -3
-3 1 -22 8 -42 8 -20 16 -45 18 -56 2 -11 11 -38 21 -60 10 -22 20 -55 22 -74
2 -18 10 -43 16 -55 7 -11 13 -25 14 -31 0 -5 2 -13 4 -17 1 -5 3 -11 4 -15
13 -50 32 -101 43 -114 7 -8 13 -19 13 -22 0 -12 40 -47 54 -47 9 0 12 -8 8
-25 -2 -14 1 -32 8 -40 6 -8 9 -18 6 -23 -2 -4 -1 -25 3 -45 7 -27 5 -39 -6
-48 -10 -9 -11 -14 -3 -19 7 -5 11 -51 10 -136 -3 -205 -5 -254 -10 -254 -3 0
-4 -44 -4 -97 2 -110 -6 -133 -41 -133 -25 0 -33 -14 -15 -25 6 -3 10 -40 10
-81 0 -43 4 -74 10 -74 12 0 3 -105 -11 -132 -5 -10 -5 -18 1 -20 13 -4 22
-48 10 -48 -4 0 -7 -8 -5 -17 2 -10 4 -24 4 -30 1 -19 19 -16 24 5 3 9 5 0 6
-21 0 -21 -3 -36 -8 -33 -14 9 -7 -75 9 -104 16 -30 17 -194 1 -214 -6 -7 -12
-29 -15 -49 -5 -44 -13 -57 -32 -57 -8 0 -15 -8 -15 -17 -2 -21 -4 -39 -18
-118 -5 -33 -12 -80 -15 -105 -3 -25 -10 -67 -16 -95 -6 -27 -13 -79 -15 -115
-3 -36 -8 -78 -11 -95 -7 -35 -6 -364 1 -415 18 -128 24 -485 11 -630 -4 -41
-9 -142 -11 -225 -6 -230 -14 -317 -33 -345 -9 -14 -17 -29 -18 -35 0 -5 -4
-18 -8 -27 -4 -9 -9 -25 -11 -35 -2 -10 -4 -18 -5 -18 -1 0 -3 -16 -6 -35 -2
-19 -13 -53 -24 -75 -11 -23 -20 -46 -20 -51 0 -6 -11 -25 -25 -44 -14 -19
-25 -41 -25 -50 0 -21 -26 -75 -55 -115 -12 -16 -28 -45 -36 -62 -8 -18 -19
-33 -25 -33 -11 0 -104 -177 -104 -198 0 -6 -6 -15 -14 -19 -7 -4 -36 -45 -63
-90 -27 -46 -74 -109 -104 -140 -31 -32 -58 -65 -62 -73 -4 -8 -11 -22 -17
-30 -5 -8 -31 -51 -57 -95 -50 -85 -102 -157 -118 -164 -9 -4 -81 -69 -171
-156 -28 -27 -73 -67 -98 -89 -47 -38 -47 -39 -62 -17 -8 11 -19 21 -24 21
-15 0 -69 -87 -80 -130 -10 -36 -48 -86 -58 -76 -2 3 8 24 21 48 29 49 39 103
20 103 -7 0 -13 -4 -12 -8 1 -5 -10 -21 -23 -35 -32 -36 -78 -105 -78 -118 0
-6 -9 -19 -20 -29 -11 -10 -20 -26 -20 -37 0 -10 -5 -18 -10 -18 -6 0 -31 -21
-57 -47 -46 -48 -46 -48 -53 -23 -4 14 -3 38 2 55 11 40 10 48 -5 69 -12 17
-17 17 -50 5 -31 -11 -38 -19 -45 -53 -5 -23 -8 -71 -8 -108 1 -55 -2 -68 -16
-71 -9 -3 -19 2 -23 11 -5 13 -9 11 -30 -8 -13 -13 -23 -26 -21 -29 3 -3 -2
-15 -10 -26 -13 -18 -14 -18 -14 6 0 14 5 30 10 35 18 18 33 141 19 150 -29
18 -72 -154 -49 -197 8 -13 8 -24 3 -28 -6 -3 -28 -21 -51 -40 -60 -50 -80
-49 -88 8 -4 25 -11 49 -16 52 -5 3 1 32 13 64 17 46 20 66 13 94 -11 43 -44
57 -44 18 0 -13 -7 -44 -15 -68 -13 -36 -22 -76 -27 -119 -3 -20 16 -110 23
-110 16 0 9 -18 -8 -23 -10 -3 -42 -15 -71 -25 -54 -19 -60 -18 -67 18 -3 17
0 20 15 15 16 -5 20 -2 20 18 0 13 3 27 8 31 4 4 8 17 9 29 13 137 14 167 5
167 -5 0 -17 -16 -26 -35 -9 -19 -19 -35 -21 -35 -2 0 -2 41 0 92 4 97 -4 128
-34 128 -17 0 -26 -13 -48 -70 -15 -38 -9 -236 8 -256 8 -10 13 -19 12 -21
-10 -13 1 -48 22 -69 17 -16 21 -26 12 -29 -41 -15 -141 -45 -142 -43 -2 2 1
26 6 53 5 28 14 79 19 115 6 36 13 72 16 82 2 9 1 19 -4 22 -11 6 -52 -21 -52
-35 0 -6 -9 -30 -20 -55 -11 -24 -28 -75 -36 -113 -21 -91 -40 -102 -143 -84
-39 7 -44 11 -47 38 -16 161 -17 169 -41 197 -12 13 -13 26 -5 62 10 50 2 61
-16 21 -15 -32 -15 -58 -1 -72 7 -7 5 -22 -5 -49 -10 -25 -15 -65 -13 -111 2
-61 -1 -72 -13 -69 -8 3 -29 7 -47 11 -30 6 -31 8 -28 48 2 23 10 87 19 142 8
55 14 114 11 130 -2 17 -4 33 -4 37 -1 3 -10 4 -20 1 -17 -4 -38 -57 -46 -113
-1 -8 -6 -35 -10 -60 -5 -25 -8 -53 -6 -62 3 -21 -24 -14 -33 8 -3 8 -12 14
-20 14 -24 0 -27 -32 -6 -72 26 -50 26 -61 -2 -52 -13 4 -30 8 -38 9 -8 1 -26
7 -40 12 -14 6 -34 12 -44 14 -13 3 -23 18 -30 48 -6 25 -17 46 -23 49 -19 6
-35 -45 -23 -69 9 -15 7 -19 -6 -19 -24 0 -122 106 -145 157 -15 33 -24 41
-42 39 -35 -4 -51 -16 -38 -29 6 -6 11 -18 11 -25 0 -8 16 -35 36 -58 39 -48
38 -48 -54 -31 -67 13 -65 11 -108 100 -10 20 -22 37 -27 37 -4 0 -6 4 -3 8 3
5 -8 24 -24 43 -16 19 -29 39 -30 45 0 11 -64 100 -92 128 -17 16 -57 15 -59
-2 0 -4 -2 -16 -5 -27 -4 -21 32 -110 54 -133 7 -8 24 -30 39 -50 15 -21 45
-57 67 -81 l41 -44 -30 8 c-16 3 -32 10 -35 14 -3 5 -16 11 -30 15 -14 4 -34
11 -45 16 -11 5 -42 16 -70 26 -68 23 -166 67 -161 72 2 2 14 -2 26 -8 20 -11
21 -10 10 9 -6 12 -14 21 -18 21 -4 0 -16 16 -26 35 -19 34 -39 44 -51 25 -7
-11 12 -51 29 -62 14 -9 0 -22 -17 -15 -15 5 -67 108 -67 131 0 8 -16 45 -35
82 -19 38 -35 75 -35 82 0 16 -25 16 -37 -1 -8 -10 -11 -67 -3 -74 1 -2 3 -6
4 -10 8 -34 62 -129 84 -148 15 -14 21 -25 15 -25 -7 0 -13 5 -13 10 0 6 -8
10 -17 10 -10 0 -27 7 -37 15 -11 8 -27 15 -36 15 -8 0 -32 11 -52 25 -20 14
-44 25 -52 25 -8 0 -16 3 -18 8 -1 4 -46 28 -98 54 -89 45 -116 62 -193 131
-17 15 -35 27 -39 27 -4 0 -22 13 -40 30 -18 17 -37 30 -44 30 -6 0 -24 13
-40 30 -16 16 -34 30 -41 30 -7 0 -22 11 -35 23 -13 13 -63 57 -113 98 -49 41
-99 82 -109 92 -11 9 -23 17 -27 17 -5 0 -27 18 -51 40 -24 22 -65 57 -91 78
-70 54 -183 166 -213 212 -15 22 -31 40 -35 40 -5 0 -9 7 -9 15 0 8 -7 15 -15
15 -8 0 -15 5 -15 10 0 6 -15 25 -32 42 -18 18 -33 35 -33 38 0 3 -12 18 -27
33 -14 15 -33 42 -41 60 -9 18 -24 41 -34 52 -40 45 -93 114 -93 122 0 10 -24
44 -52 74 -10 11 -18 23 -18 28 0 4 -13 24 -30 42 -16 19 -30 40 -30 47 0 6
-4 12 -9 12 -5 0 -13 9 -16 20 -3 11 -12 26 -18 32 -29 31 -69 90 -72 107 -4
24 -23 61 -41 82 -7 8 -15 24 -18 35 -8 39 -19 64 -26 64 -5 0 -8 12 -8 28 0
15 -11 45 -26 67 -14 22 -26 44 -25 49 0 5 -4 12 -10 15 -6 4 -12 16 -14 28
-1 12 -8 27 -14 35 -6 7 -15 26 -18 41 -22 86 -28 -27 -10 -177 6 -43 5 -57
-4 -52 -7 4 -33 -15 -64 -46 -89 -90 -128 -119 -163 -125 -23 -4 -34 -2 -34 6
0 7 -4 10 -9 7 -13 -8 -105 38 -181 89 -35 24 -77 47 -92 50 -19 5 -28 14 -33
33 -6 29 -51 86 -126 161 -67 67 -113 106 -121 103 -5 -1 -8 2 -8 8 0 5 -7 10
-15 10 -8 0 -15 7 -15 16 0 9 -17 30 -37 47 -20 18 -51 46 -68 62 -17 17 -64
59 -104 95 -40 36 -96 88 -125 115 -29 28 -76 70 -105 95 -66 56 -131 120
-124 120 4 0 -1 8 -10 18 -10 10 -14 22 -10 25 3 4 1 7 -5 7 -7 0 -12 6 -12
14 0 7 -7 19 -15 26 -8 7 -13 16 -10 20 3 4 -1 10 -8 13 -15 6 -65 95 -70 125
-2 11 -7 26 -13 34 -20 27 -68 213 -59 228 2 4 7 44 10 91 3 46 8 111 10 144
3 33 14 98 25 145 11 47 25 110 32 140 6 30 16 61 22 69 6 7 35 63 66 124 59
120 55 116 160 139 82 18 143 20 184 8 63 -19 140 -56 155 -74 7 -9 19 -16 26
-16 8 0 15 -6 17 -12 4 -10 10 -10 30 -1 24 11 26 16 21 55 -4 24 -13 54 -22
67 -15 23 -14 23 9 16 27 -8 62 -40 58 -52 -2 -4 18 -29 44 -55 30 -31 45 -54
42 -65 -3 -11 4 -24 18 -33 12 -8 34 -27 49 -42 15 -16 30 -28 33 -28 4 0 24
-18 45 -40 21 -22 45 -40 53 -40 8 0 23 -9 33 -20 10 -11 24 -20 32 -20 17 0
35 -47 28 -70 -3 -11 1 -20 10 -24 9 -3 15 -18 15 -38 0 -22 9 -41 24 -56 14
-12 27 -36 31 -52 4 -17 13 -33 20 -37 7 -5 16 -20 20 -35 5 -21 2 -29 -14
-38 -25 -13 -26 -36 -4 -109 33 -115 56 -148 96 -142 4 1 10 -6 13 -14 4 -8
12 -15 18 -15 26 0 39 -73 39 -215 0 -78 -4 -151 -8 -164 -4 -13 -2 -28 5 -36
9 -11 9 -15 1 -15 -15 0 -13 -154 3 -184 11 -22 66 -85 66 -76 0 3 -4 20 -9
37 -6 21 -6 35 1 39 5 3 8 15 5 25 -3 10 -1 22 4 25 5 3 7 10 4 15 -4 5 -1 9
5 9 12 0 33 -48 25 -60 -8 -13 22 -74 43 -86 17 -11 20 -5 41 74 13 48 27 90
32 93 5 3 13 36 18 75 6 38 17 90 25 117 8 26 12 47 9 47 -4 0 -2 5 5 12 7 7
12 21 12 33 0 11 6 32 14 47 13 24 27 75 28 95 0 5 3 13 7 18 5 6 7 21 4 35
-2 14 -4 36 -4 50 0 45 -23 63 -69 57 -36 -5 -40 -3 -33 11 4 10 7 43 6 75 -2
55 0 59 27 75 27 15 42 48 45 95 0 4 6 11 13 16 7 4 12 25 11 52 -1 24 4 64
10 89 29 118 24 135 -39 134 -48 -2 -99 -34 -204 -132 l-29 -26 16 31 c9 17
23 33 32 37 11 4 13 11 7 21 -4 9 -5 37 -1 63 4 26 9 56 11 67 2 11 8 25 14
30 11 9 15 22 30 93 3 15 8 34 11 42 3 8 7 30 9 49 2 18 10 41 19 51 8 9 15
30 15 46 0 16 7 58 15 94 23 100 25 110 30 185 2 39 7 81 11 95 11 43 6 347
-5 369 -6 11 -12 33 -12 48 -1 15 -8 61 -17 102 -11 57 -12 79 -3 93 6 10 11
24 11 32 0 7 7 19 15 26 9 7 14 19 11 27 -3 8 1 16 10 20 14 5 50 63 40 63 -3
0 6 11 19 25 14 13 25 33 25 44 0 11 9 26 20 34 11 8 23 24 25 37 2 12 16 33
30 46 14 12 25 27 25 32 0 6 7 12 15 16 8 3 15 12 15 21 0 8 6 15 14 15 8 0
17 13 21 30 4 16 12 33 19 37 6 5 20 21 29 36 10 16 24 26 31 24 7 -3 21 11
32 31 10 21 37 53 59 73 22 20 47 49 55 65 8 16 23 38 32 49 49 59 53 61 103
62 28 0 93 6 145 12 52 6 113 13 135 14 22 1 67 16 100 32 33 16 67 30 75 32
8 1 16 7 18 12 2 6 9 11 16 11 7 0 34 11 59 24 25 14 48 22 51 19 3 -4 6 -2 6
3 0 6 16 16 36 23 20 7 45 22 55 32 11 11 24 17 29 14 4 -3 10 -1 12 5 2 6 14
12 28 15 14 2 32 14 42 25 9 11 21 20 26 20 6 0 17 6 24 13 7 6 29 21 48 31
l35 19 -25 -29 c-14 -16 -31 -33 -37 -37 -7 -4 -13 -15 -13 -22 0 -8 -6 -15
-14 -15 -8 0 -18 -9 -21 -20 -3 -11 -11 -20 -16 -20 -5 0 -9 -6 -9 -13 0 -8
-11 -24 -25 -37 -13 -12 -22 -27 -18 -33 4 -6 1 -7 -6 -3 -8 5 -14 0 -18 -13
-3 -12 -11 -21 -19 -21 -7 0 -32 -18 -55 -40 -23 -22 -48 -40 -56 -40 -7 0
-13 -4 -13 -10 0 -5 -7 -10 -15 -10 -8 0 -31 -9 -50 -20 -20 -11 -40 -18 -46
-15 -5 4 -10 -1 -10 -9 -2 -24 -4 -30 -12 -43 -5 -8 2 -18 17 -28 23 -16 80
-16 156 -1 14 2 46 9 72 14 26 5 54 15 62 21 11 9 15 8 20 -4 6 -16 11 -16
137 0 32 3 81 28 98 49 7 9 17 13 22 10 5 -3 23 9 40 25 17 17 34 29 39 26 5
-3 16 2 24 11 9 8 16 13 16 9 0 -3 10 6 23 20 12 14 30 27 39 29 33 4 298 274
298 303 0 7 4 13 9 13 5 0 16 16 25 35 9 19 20 35 24 35 4 0 20 27 35 60 16
33 36 64 44 69 9 5 14 15 10 24 -4 10 1 18 12 22 11 3 25 20 32 38 7 18 16 34
20 37 4 3 14 21 23 40 27 58 62 111 69 104 3 -4 12 5 18 20 7 14 16 26 20 26
8 0 35 70 31 82 -1 4 11 5 26 4 15 -2 32 3 38 12 9 12 14 9 32 -20 20 -32 56
-56 94 -62 8 -1 27 -14 42 -29 51 -51 94 -30 157 76 l43 72 17 -39 c9 -22 24
-43 33 -48 11 -6 16 -20 14 -42 -2 -37 7 -56 28 -56 8 0 14 -4 14 -9 0 -15 40
-24 54 -12 6 5 21 8 33 5 11 -3 27 1 37 11 9 9 23 18 31 19 17 2 62 39 139
114 32 31 62 58 67 58 5 1 12 3 17 4 4 1 12 3 17 4 49 10 83 41 96 89 6 21 13
37 15 34 3 -3 7 -41 9 -85 l4 -80 -30 -12 c-30 -13 -47 -49 -34 -70 4 -7 24
-10 46 -8 37 3 39 2 39 -23 0 -39 57 -183 80 -204 11 -10 20 -23 20 -29 0 -17
105 -131 184 -201 24 -22 45 -47 45 -56 1 -9 11 -23 24 -32 12 -8 32 -24 45
-35 12 -11 55 -30 95 -43 39 -12 82 -29 94 -37 12 -7 24 -13 27 -13 3 0 26 -8
51 -19 24 -10 64 -24 87 -31 54 -14 228 -17 248 -4 8 5 24 8 35 7 17 -2 17 -1
5 7 -8 6 -13 11 -10 11 3 0 30 9 60 19 54 18 54 19 25 26 -57 13 -130 37 -139
46 -6 5 -24 9 -42 9 -67 0 -326 236 -383 350 -18 36 -38 71 -44 78 -6 8 -13
23 -14 35 -2 12 -15 40 -29 64 -14 24 -23 43 -20 43 3 0 -2 16 -10 36 -8 20
-13 39 -10 41 3 3 0 15 -6 27 -6 11 -13 30 -14 41 -1 11 -8 38 -14 60 -21 71
-21 135 0 135 5 0 12 -5 15 -10z m760 -28 c-3 -3 -11 0 -18 7 -9 10 -8 11 6 5
10 -3 15 -9 12 -12z m46 -39 c13 -16 12 -17 -3 -4 -17 13 -22 21 -14 21 2 0
10 -8 17 -17z m161 -64 c2 -5 21 -11 43 -13 22 -1 48 -7 59 -13 17 -10 17 -10
-3 -16 -11 -3 -21 -2 -21 1 0 4 -32 7 -70 8 -79 1 -93 7 -64 29 22 17 51 19
56 4z m1630 -81 c16 -24 15 -25 -31 -54 -25 -16 -61 -42 -78 -57 l-33 -29 6
49 c4 26 11 52 15 58 5 5 9 20 9 35 0 41 11 69 28 72 16 3 57 -33 84 -74z
m-4811 -341 c-10 -9 -11 -8 -5 6 3 10 9 15 12 12 3 -3 0 -11 -7 -18z m-3310
-18 c19 -10 18 -13 -21 -56 -32 -36 -110 -175 -110 -196 0 -3 -8 -22 -17 -43
-9 -22 -18 -43 -19 -49 -1 -5 -8 -23 -15 -40 -14 -35 -13 -30 -23 -75 -5 -19
-13 -44 -19 -55 -6 -11 -12 -31 -13 -44 -2 -13 -6 -31 -10 -40 -4 -9 -9 -25
-10 -36 -4 -34 -10 -54 -17 -61 -4 -4 -4 -18 -1 -30 4 -15 2 -24 -6 -24 -7 0
-9 -8 -5 -20 3 -11 2 -20 -3 -20 -6 0 -10 -10 -10 -22 0 -13 -3 -34 -7 -48 -3
-14 -9 -41 -11 -60 -3 -19 -11 -63 -19 -98 -8 -35 -15 -76 -15 -92 0 -16 -4
-31 -9 -34 -28 -18 -25 330 4 429 9 33 21 78 26 100 6 22 14 58 20 80 6 22 13
52 16 68 3 15 9 27 13 27 5 0 6 9 3 20 -3 11 0 20 6 20 6 0 11 11 11 25 0 13
7 41 16 62 47 110 69 155 82 165 7 6 19 25 27 42 17 38 31 54 75 89 41 31 36
30 61 16z m2939 -588 c0 -5 -12 -16 -26 -26 -25 -16 -25 -16 -15 3 9 17 19 25
39 31 1 1 2 -3 2 -8z m-60 -45 c0 -3 -4 -8 -10 -11 -5 -3 -10 -1 -10 4 0 6 5
11 10 11 6 0 10 -2 10 -4z m-3290 -489 c0 -62 -1 -137 -1 -168 -2 -91 62 -191
125 -194 l33 -1 -28 28 c-15 16 -31 37 -34 48 -4 11 -10 20 -14 20 -11 0 -53
88 -49 102 3 7 15 0 31 -17 41 -47 97 -124 97 -135 0 -6 4 -10 9 -10 5 0 16
-18 25 -40 9 -22 20 -40 25 -40 5 0 11 -9 14 -20 6 -23 0 -24 -40 -10 -26 10
-27 9 -8 -5 101 -77 99 -122 -4 -73 -115 55 -213 152 -261 258 -30 65 -9 193
35 217 12 7 21 61 25 173 l1 25 9 -23 c6 -13 10 -73 10 -135z m8091 -213 c5
-7 3 -11 -6 -11 -12 0 -15 12 -13 51 1 47 2 48 5 11 3 -22 9 -45 14 -51z m-4
-106 c-3 -7 -5 -2 -5 12 0 14 2 19 5 13 2 -7 2 -19 0 -25z m-20 -170 c-3 -8
-6 -5 -6 6 -1 11 2 17 5 13 3 -3 4 -12 1 -19z m-11 -154 c-4 -9 -9 -15 -11
-12 -3 3 -3 13 1 22 4 9 9 15 11 12 3 -3 3 -13 -1 -22z m-7821 -122 c-10 -79
-26 -175 -31 -184 -3 -5 -8 -34 -10 -66 -4 -57 -32 -214 -39 -221 -14 -14 -24
126 -14 190 9 53 28 175 33 214 10 66 20 101 34 112 24 20 32 5 27 -45z m7815
43 c0 -8 -4 -15 -10 -15 -5 0 -10 7 -10 15 0 8 5 15 10 15 6 0 10 -7 10 -15z
m-18 -116 c-8 -30 -9 -28 -7 21 4 71 7 82 12 44 2 -18 0 -47 -5 -65z m-6772
-299 c0 -5 -4 -10 -10 -10 -5 0 -10 5 -10 10 0 6 5 10 10 10 6 0 10 -4 10 -10z
m490 -1283 c0 -4 -7 -22 -16 -39 -14 -28 -17 -29 -26 -14 -14 24 -16 78 -4 94
8 11 13 9 28 -10 9 -13 18 -27 18 -31z m1900 -3232 c0 -12 -19 -12 -23 0 -4 9
-1 12 9 8 7 -3 14 -7 14 -8z m115 -63 c-7 -8 -35 7 -35 18 0 6 7 6 20 -2 10
-7 17 -14 15 -16z m-468 -249 c9 -21 32 -59 50 -85 18 -26 33 -51 33 -56 0 -4
20 -28 45 -53 24 -24 45 -49 45 -55 0 -6 29 -39 65 -73 36 -35 65 -65 65 -68
0 -8 93 -94 155 -142 30 -24 55 -48 55 -52 0 -5 5 -9 11 -9 6 0 29 -16 50 -35
22 -19 45 -35 52 -35 6 0 30 -16 52 -36 39 -35 50 -42 148 -93 26 -14 47 -28
47 -33 0 -4 15 -10 34 -14 19 -3 42 -15 52 -25 9 -10 27 -19 39 -19 13 0 28
-7 35 -15 7 -8 19 -15 26 -15 8 0 14 -4 14 -10 0 -5 8 -10 18 -10 10 0 26 -6
37 -14 16 -11 42 -20 85 -31 3 0 19 -8 35 -17 17 -8 36 -13 43 -11 7 3 18 0
25 -5 7 -6 24 -13 37 -16 14 -3 50 -12 80 -21 30 -8 64 -15 77 -15 12 0 24 -4
27 -8 10 -17 203 -3 263 18 32 11 83 27 115 35 31 8 85 31 119 51 35 19 77 38
94 41 54 10 229 120 282 178 16 17 42 41 58 55 17 14 51 50 77 80 26 30 58 68
72 84 14 16 26 32 26 35 0 3 10 17 23 31 12 14 33 40 45 58 13 17 30 32 37 32
8 0 23 9 34 21 l19 21 14 -21 c7 -12 18 -21 24 -21 6 0 14 -21 17 -46 6 -61
36 -92 82 -87 19 2 35 0 35 -4 0 -7 100 -62 140 -77 8 -3 23 -10 33 -16 9 -5
25 -14 35 -20 18 -11 89 -44 137 -64 17 -7 51 -23 76 -35 25 -11 52 -21 59
-21 6 0 24 -6 38 -13 41 -21 111 -53 172 -77 112 -46 118 -50 124 -76 7 -28
-11 -89 -34 -116 -30 -34 -38 -45 -44 -65 -4 -12 -13 -27 -21 -33 -8 -7 -15
-21 -15 -31 0 -11 -5 -19 -10 -19 -6 0 -20 -19 -30 -42 -11 -24 -20 -39 -20
-34 0 16 -40 -32 -40 -49 0 -8 -6 -15 -13 -15 -7 0 -21 -15 -31 -34 -10 -19
-40 -58 -67 -87 -74 -81 -83 -91 -109 -126 -13 -18 -27 -33 -32 -33 -7 0 -133
-125 -146 -145 -4 -6 -27 -26 -52 -45 -69 -53 -81 -63 -106 -87 -13 -13 -26
-23 -30 -23 -3 0 -36 -26 -74 -57 -101 -86 -108 -92 -143 -111 -18 -9 -63 -39
-99 -65 -37 -26 -71 -47 -77 -47 -5 0 -14 -7 -19 -17 -6 -9 -16 -14 -25 -10
-10 4 -28 -4 -45 -18 -16 -13 -42 -27 -58 -30 -16 -4 -38 -11 -49 -16 -31 -13
-79 -32 -87 -33 -3 -1 -10 -4 -14 -9 -4 -4 -18 -7 -30 -7 -12 0 -35 -5 -51
-12 -15 -6 -31 -12 -35 -13 -5 -2 -10 -4 -13 -5 -6 -3 -10 -5 -41 -15 -11 -3
-25 -18 -30 -33 -15 -40 -90 -64 -172 -56 -34 4 -62 10 -62 15 0 4 -8 6 -17 4
-10 -1 -27 3 -38 10 -11 7 -41 16 -65 20 -25 4 -92 23 -150 42 -58 19 -113 36
-122 38 -9 2 -26 9 -37 15 -12 6 -21 9 -21 6 0 -2 -39 13 -87 33 -49 21 -116
47 -150 57 -35 10 -63 22 -63 25 0 4 -18 10 -41 14 -22 4 -43 13 -46 21 -3 8
-17 14 -31 14 -14 0 -33 7 -43 16 -9 8 -28 16 -41 18 -13 1 -41 14 -63 29 -22
15 -45 27 -51 27 -6 0 -40 15 -75 34 -35 18 -76 36 -91 40 -15 3 -33 12 -40
19 -7 6 -31 18 -52 26 -22 7 -48 22 -59 32 -11 10 -34 21 -51 25 -17 3 -38 12
-46 18 -8 7 -33 21 -55 31 -22 11 -49 27 -60 36 -11 9 -37 22 -57 29 -21 6
-41 17 -45 24 -10 15 -88 56 -108 56 -7 0 -26 10 -42 23 -15 12 -37 27 -48 34
-101 62 -141 88 -143 95 -2 4 -12 8 -22 8 -11 0 -27 9 -37 19 -10 11 -29 25
-43 31 -31 14 -57 29 -106 61 -22 15 -53 35 -70 45 -17 10 -60 38 -95 62 -35
23 -72 48 -83 55 -10 6 -24 17 -30 23 -6 6 -16 13 -21 15 -18 7 -189 123 -205
139 -9 8 -29 24 -44 35 -16 11 -34 26 -41 33 -8 6 -17 12 -21 12 -4 0 -12 7
-18 15 -11 16 -30 3 -112 -77 -12 -11 -27 -17 -33 -14 -6 4 -11 4 -11 -1 0
-10 -49 -33 -70 -33 -9 0 -20 -4 -25 -9 -22 -20 -182 -65 -230 -65 -80 1 -105
13 -105 48 0 19 12 29 53 49 28 14 75 31 102 37 69 16 66 15 107 34 21 9 47
16 58 16 11 0 20 4 20 9 0 9 50 21 110 26 14 2 34 5 45 8 11 3 26 6 33 6 7 1
11 5 8 10 -3 5 17 15 45 21 29 7 64 19 78 26 14 8 33 14 42 14 9 0 22 6 28 14
7 8 23 17 37 20 13 4 34 14 45 24 38 31 149 147 149 154 0 5 6 8 13 8 6 1 30
24 52 52 71 90 103 121 127 122 33 1 105 56 114 86 6 20 8 22 11 7 4 -17 6
-17 30 -2 30 20 42 12 20 -13 -10 -10 -14 -22 -10 -25 3 -4 -2 -16 -12 -27 -9
-10 -20 -40 -22 -64 -5 -39 -2 -49 18 -66 13 -10 26 -19 29 -20 3 0 6 22 6 50
2 33 9 58 23 76 12 15 21 34 21 43 0 9 7 41 15 71 9 30 18 70 21 89 3 18 21
63 40 99 19 35 34 69 34 74 0 5 16 31 35 59 19 28 35 55 35 60 0 22 21 6 37
-28z m1193 11 c0 -8 -4 -12 -10 -9 -5 3 -10 10 -10 16 0 5 5 9 10 9 6 0 10 -7
10 -16z m-1490 -344 c0 -5 -5 -10 -11 -10 -5 0 -7 5 -4 10 3 6 8 10 11 10 2 0
4 -4 4 -10z m1630 -506 c0 -8 8 -14 17 -14 9 0 14 -2 11 -5 -3 -4 -17 -3 -31
0 -18 5 -23 12 -20 26 6 21 23 16 23 -7z m145 -64 c-3 -5 -11 -10 -16 -10 -6
0 -7 5 -4 10 3 6 11 10 16 10 6 0 7 -4 4 -10z m465 -5 c0 -1 -17 -15 -37 -31
-21 -15 -32 -21 -25 -12 8 10 11 25 8 36 -5 16 -2 18 24 14 16 -2 30 -5 30 -7z
m2033 -28 c57 -24 106 -41 155 -52 17 -4 32 -11 32 -16 0 -5 15 -9 34 -9 24 0
40 -7 53 -22 10 -13 28 -28 38 -34 30 -17 32 -52 3 -56 -28 -4 -156 19 -180
32 -10 6 -28 9 -40 9 -17 -1 -19 -2 -5 -6 9 -2 17 -8 17 -13 0 -5 7 -7 15 -4
8 4 15 2 15 -3 0 -5 15 -17 33 -28 17 -10 43 -29 57 -42 23 -21 23 -23 5 -23
-18 0 -50 7 -132 25 -12 3 -28 12 -36 20 -8 8 -21 16 -28 17 -7 2 -20 9 -28
16 -9 7 -19 12 -24 12 -13 -1 -67 30 -67 38 1 23 20 34 54 30 20 -2 36 0 36 4
0 4 -7 8 -15 8 -8 0 -28 12 -44 27 -28 26 -28 29 -15 55 16 32 24 33 67 15z
m-2093 -62 c0 -9 -9 -15 -22 -15 -21 0 -21 0 -2 15 24 18 24 18 24 0z m-2920
-65 c9 -16 8 -18 -5 -14 -8 4 -15 12 -15 20 0 20 7 17 20 -6z m4940 -103 c68
-50 97 -77 84 -77 -5 0 -23 8 -40 19 -17 10 -41 22 -55 26 -26 9 -99 65 -99
78 0 17 58 -8 110 -46z m-5083 -15 c-21 -36 -61 -76 -71 -70 -3 2 -11 -5 -18
-14 -7 -10 -27 -21 -45 -24 -25 -5 -33 -2 -42 15 -10 18 -6 27 40 70 35 34 62
51 83 53 17 2 41 4 53 5 l22 3 -22 -38z m5739 -3 c24 -6 44 -15 44 -20 0 -5 7
-6 15 -3 8 4 15 1 15 -6 0 -6 5 -8 10 -5 6 4 16 3 23 -2 7 -6 28 -16 47 -23
19 -7 49 -18 65 -25 54 -21 129 -42 210 -60 44 -9 87 -20 95 -23 8 -3 19 -4
23 -3 5 1 23 -5 40 -13 18 -7 66 -24 107 -36 41 -12 87 -26 102 -32 15 -6 29
-8 31 -7 2 2 10 -1 18 -7 8 -7 29 -15 48 -19 19 -4 62 -20 95 -35 67 -31 150
-60 169 -60 7 0 29 -9 50 -20 20 -11 45 -20 55 -20 10 0 22 -3 25 -7 4 -3 17
-7 30 -9 34 -3 166 -40 226 -63 63 -24 159 -45 266 -58 52 -6 75 -15 233 -90
52 -25 101 -46 111 -48 31 -6 109 -46 126 -65 16 -17 15 -19 -3 -29 -25 -13
-50 -5 -77 26 -20 24 -107 66 -177 85 -21 6 -38 14 -38 18 0 12 -73 21 -275
35 -49 3 -92 10 -95 14 -6 9 -55 22 -82 22 -10 0 -18 4 -18 8 0 5 -12 11 -27
14 -85 18 -133 32 -133 39 0 4 -15 8 -34 8 -19 0 -37 4 -41 9 -3 5 -31 12 -63
16 -130 14 -248 53 -303 101 -8 8 -20 14 -26 14 -6 0 -16 7 -23 15 -7 8 -20
15 -29 15 -9 0 -38 11 -66 25 -27 13 -57 25 -65 25 -8 0 -28 7 -44 15 -15 8
-32 13 -36 10 -5 -3 -11 -1 -14 4 -3 5 -30 12 -59 16 -28 4 -56 11 -62 15 -11
8 -68 20 -97 21 -10 0 -18 4 -18 10 0 5 -3 8 -8 7 -13 -5 -162 45 -162 54 0 4
-7 8 -16 8 -26 0 -273 124 -274 138 0 15 28 15 86 1z m-9303 -1319 c-5 -20
-40 -46 -49 -37 -4 3 44 57 51 57 2 0 1 -9 -2 -20z m-173 -230 c0 -5 -5 -10
-11 -10 -5 0 -7 5 -4 10 3 6 8 10 11 10 2 0 4 -4 4 -10z m5791 -379 c-8 -5
-20 -7 -28 -4 -21 8 -15 13 15 13 20 0 23 -3 13 -9z"></path>
            <path d="M10745 10199 c16 -51 25 -69 34 -69 13 0 -14 83 -29 88 -9 3 -10 -2
-5 -19z"></path>
            <path d="M9220 10036 c0 -14 4 -27 8 -30 5 -3 6 8 4 25 -5 35 -12 38 -12 5z"></path>
            <path d="M11390 9142 c0 -12 19 -26 26 -19 2 2 -2 10 -11 17 -9 8 -15 8 -15 2z"></path>
            <path
                d="M10589 9116 c-3 -3 -27 -8 -54 -11 -28 -3 -97 -13 -155 -22 -58 -8
-125 -17 -150 -19 -61 -6 -163 -24 -175 -32 -5 -4 -21 -8 -35 -9 -50 -3 -186
-36 -230 -56 -53 -23 -87 -57 -68 -68 8 -5 -3 -23 -36 -55 -42 -41 -47 -50
-37 -66 6 -10 9 -23 6 -27 -3 -5 2 -12 11 -15 8 -3 12 -10 9 -16 -6 -10 6 -14
38 -11 10 2 21 -8 26 -22 14 -36 60 -45 82 -16 9 12 16 30 14 38 -3 24 27 40
87 46 29 3 60 9 68 12 8 4 26 8 40 10 47 5 50 6 50 15 0 5 5 6 10 3 6 -4 36 1
68 11 31 9 68 18 82 20 123 17 137 18 318 28 56 3 110 10 121 15 10 6 21 8 24
5 3 -3 11 -3 18 1 6 4 32 9 56 11 24 1 51 8 58 14 7 6 33 11 57 12 24 0 48 3
53 6 6 4 31 7 57 8 39 1 48 -3 59 -23 7 -13 23 -26 36 -29 13 -4 23 -11 23
-16 0 -5 6 -8 12 -6 15 5 38 -15 38 -33 0 -7 10 -10 28 -6 15 3 34 2 42 -3 30
-18 40 0 40 74 0 83 -9 98 -52 85 -35 -10 -97 11 -141 48 -16 13 -32 23 -35
24 -4 0 -29 2 -57 4 -27 2 -61 7 -75 13 -14 5 -40 7 -57 5 -18 -2 -33 0 -33 5
0 5 -30 13 -67 17 -38 4 -76 12 -87 17 -13 7 -21 7 -25 -1 -4 -6 -18 -9 -32
-7 -13 3 -26 5 -29 5 -3 1 2 6 10 11 8 5 10 10 4 10 -6 0 -13 -2 -15 -4z"></path>
            <path
                d="M7167 9024 c-3 -4 -33 -7 -117 -15 -8 -1 -49 -8 -90 -15 -41 -8 -113
-20 -159 -28 -46 -8 -87 -19 -90 -24 -7 -12 -155 -92 -169 -92 -6 0 -48 -17
-94 -39 -45 -21 -94 -42 -108 -46 -44 -13 -128 -55 -141 -71 -7 -8 -18 -13
-26 -10 -7 3 -13 1 -13 -4 0 -6 -7 -10 -16 -10 -16 0 -48 -65 -39 -80 3 -5 22
0 41 11 19 10 47 21 62 22 15 2 37 9 49 15 33 18 41 14 16 -7 -23 -19 -22 -19
50 -15 72 4 95 8 239 40 43 10 86 17 95 17 10 0 23 3 28 7 6 4 19 6 30 4 10
-1 25 2 32 8 7 6 13 7 13 4 0 -4 14 2 30 14 17 12 30 19 30 16 0 -3 12 1 26 9
15 7 33 11 40 8 8 -3 14 -1 14 4 0 5 17 7 38 5 126 -11 556 -16 647 -8 22 2
44 1 49 -2 5 -3 35 -4 67 -3 31 1 74 -2 95 -8 38 -10 61 -14 154 -26 25 -4 63
-12 85 -18 22 -6 47 -12 55 -12 9 -1 31 -7 50 -13 19 -6 47 -13 62 -15 15 -1
30 -6 34 -10 4 -3 19 0 33 7 14 7 40 18 56 23 27 8 30 13 29 50 0 30 2 38 11
30 6 -6 10 -23 9 -39 -1 -15 2 -28 6 -28 5 0 12 -10 16 -22 3 -12 13 -28 21
-36 12 -13 17 -12 34 7 11 12 18 25 14 30 -3 5 0 11 6 13 14 5 3 158 -12 158
-4 0 -6 7 -3 15 4 9 0 15 -9 15 -9 0 -13 7 -11 18 5 18 -42 52 -63 45 -24 -8
-35 -68 -20 -112 21 -60 -4 -54 -33 9 -15 32 -30 50 -41 50 -10 0 -20 4 -23 9
-3 4 -17 6 -31 3 -27 -5 -65 21 -65 44 0 38 -51 51 -97 25 -13 -6 -23 -8 -23
-3 0 4 -17 9 -37 10 -118 5 -208 15 -211 23 -2 5 -7 7 -10 5 -4 -2 -43 2 -87
10 -44 8 -132 17 -195 20 -199 9 -328 12 -333 8z"></path>
            <path
                d="M9604 8923 c-3 -10 -12 -32 -19 -50 l-14 -32 42 19 c23 11 50 20 60
20 22 0 22 11 -3 38 -25 26 -59 29 -66 5z"></path>
            <path
                d="M10270 8234 c-8 -3 -24 -9 -35 -13 -11 -5 -40 -14 -65 -20 -57 -15
-60 -16 -90 -28 -14 -6 -43 -16 -65 -23 -51 -15 -149 -62 -153 -72 -2 -4 -10
-8 -18 -8 -18 0 -99 -82 -119 -119 -23 -46 -26 -82 -7 -113 20 -33 25 -34 63
-7 46 32 61 7 30 -50 -7 -12 -11 -31 -8 -42 3 -10 -2 -24 -10 -31 -11 -9 -13
-25 -9 -63 13 -113 26 -169 45 -189 11 -12 20 -24 20 -28 1 -5 11 -19 22 -33
22 -24 94 -46 149 -45 14 1 81 -1 150 -3 109 -4 160 -1 305 17 17 2 60 12 96
21 52 13 69 23 78 42 16 36 14 45 -8 33 -29 -15 -80 -12 -98 6 -15 14 -15 18
1 44 9 16 17 46 18 67 0 21 3 42 6 47 9 16 9 59 0 87 -5 14 -10 43 -11 65 -1
28 -7 40 -19 42 -11 2 -18 -3 -18 -11 0 -20 -52 -29 -82 -15 -30 14 -37 72
-12 86 9 5 19 24 23 42 5 26 16 38 53 57 l47 24 91 -19 c50 -11 99 -18 109
-15 10 3 22 0 25 -6 4 -6 24 -11 44 -11 20 -1 55 -7 77 -15 22 -8 52 -15 67
-15 21 0 29 -6 34 -26 4 -14 12 -23 18 -21 7 3 13 -6 14 -19 1 -13 -3 -24 -8
-24 -5 0 -7 -6 -4 -14 3 -7 -4 -31 -16 -52 l-20 -39 27 -3 c16 -2 33 -8 39
-13 13 -11 74 55 74 81 0 11 6 23 14 27 39 23 50 127 17 157 -11 10 -18 23
-15 30 2 6 -16 25 -41 40 -25 16 -45 33 -45 39 0 5 -7 7 -15 3 -8 -3 -15 -1
-15 4 0 11 -100 60 -123 60 -9 0 -19 5 -22 10 -4 6 -11 8 -16 5 -5 -4 -9 -1
-9 4 0 6 -16 11 -35 11 -19 0 -35 4 -35 8 0 11 -68 35 -110 38 -87 7 -387 13
-400 8z"></path>
            <path
                d="M7227 8224 c-10 -10 -36 -14 -142 -20 -49 -3 -94 -10 -99 -15 -6 -5
-18 -9 -28 -9 -10 0 -21 -6 -24 -13 -3 -8 -19 -14 -35 -15 -17 0 -37 -6 -45
-13 -8 -7 -29 -14 -45 -16 -43 -4 -174 -67 -204 -97 -15 -15 -30 -24 -34 -21
-5 2 -17 -7 -27 -20 -10 -14 -23 -25 -29 -25 -6 0 -25 -16 -43 -35 -17 -20
-32 -33 -32 -30 0 3 -16 -9 -35 -26 -19 -18 -32 -36 -29 -40 3 -5 1 -9 -5 -9
-6 0 -8 -6 -5 -13 2 -7 -3 -22 -13 -32 -10 -11 -19 -31 -21 -45 -1 -13 -7 -27
-14 -31 -17 -10 0 -28 35 -37 26 -7 36 -4 57 15 28 26 46 25 42 -3 -2 -10 -5
-30 -7 -43 -5 -32 4 -51 24 -51 10 0 21 -3 25 -7 3 -4 16 -8 27 -10 19 -3 20
1 16 37 -2 22 -2 40 2 40 3 0 17 19 31 41 14 23 38 48 55 56 16 9 51 38 78 64
27 27 53 46 59 43 5 -4 3 -13 -5 -22 -14 -16 -22 -53 -17 -77 1 -5 1 -22 0
-37 -1 -14 3 -29 8 -32 5 -3 6 -20 2 -38 -4 -20 -1 -48 7 -72 7 -21 11 -42 8
-46 -3 -4 2 -13 10 -20 8 -7 13 -16 10 -20 -3 -4 2 -13 10 -20 8 -7 12 -16 9
-21 -3 -5 0 -9 6 -9 6 0 8 -5 5 -10 -6 -10 21 -44 37 -46 4 -1 10 -3 13 -4 3
-1 10 -3 15 -4 6 0 14 -7 19 -14 5 -8 11 -13 15 -13 20 3 26 0 21 -9 -3 -5 3
-10 14 -10 11 0 23 -5 26 -11 4 -6 13 -8 20 -5 7 2 18 -1 24 -7 7 -7 29 -13
49 -13 93 -3 109 -3 145 0 20 2 40 0 43 -6 3 -5 11 -5 19 2 7 6 54 12 103 14
50 2 97 8 104 12 7 4 26 9 43 10 114 8 168 15 186 24 10 6 24 8 29 5 5 -3 12
0 15 6 4 5 13 8 20 5 7 -2 16 5 19 17 8 31 7 39 -3 32 -6 -3 -42 -8 -82 -11
l-71 -5 20 26 c11 14 23 49 27 78 4 28 12 58 17 65 12 13 29 84 30 117 0 11
-8 38 -18 60 -10 22 -18 45 -19 50 -5 27 -19 46 -32 41 -8 -3 -12 -2 -9 2 8
13 -26 72 -42 72 -40 0 -81 -85 -59 -121 16 -26 2 -34 -20 -12 -19 19 -19 21
-2 59 21 47 22 54 8 54 -6 0 -22 9 -36 20 -14 11 -30 17 -36 13 -15 -9 -89
-14 -115 -8 -20 5 -23 10 -17 32 11 47 28 51 173 47 74 -2 138 -6 142 -9 4 -3
25 -7 45 -11 108 -17 257 -77 304 -122 10 -9 28 -12 53 -9 31 4 40 1 49 -14 6
-12 15 -17 22 -12 7 4 17 8 22 8 6 0 11 6 11 13 1 6 2 13 4 15 1 1 3 24 4 51
1 31 -3 50 -11 53 -7 3 -13 11 -13 18 0 27 -83 103 -132 121 -10 3 -18 10 -18
15 0 5 -3 8 -7 8 -5 -1 -11 0 -15 1 -5 1 -11 3 -15 4 -5 2 -21 8 -38 15 -72
32 -115 46 -127 43 -5 -1 -8 2 -8 8 0 6 -17 10 -38 10 -21 0 -44 6 -51 13 -11
9 -14 9 -18 0 -3 -10 -10 -10 -25 -2 -11 6 -40 11 -64 12 -25 0 -47 3 -49 7
-5 7 -51 5 -92 -5 -12 -3 -33 -1 -47 5 -15 5 -52 6 -90 1 -37 -4 -67 -4 -68 1
-2 5 -7 6 -11 2z"></path>
            <path
                d="M7910 8216 c0 -14 48 -66 61 -66 4 0 19 -11 33 -24 50 -45 106 -79
148 -87 84 -17 118 -20 118 -9 0 5 -5 10 -10 10 -6 0 -39 29 -74 65 -35 36
-70 65 -80 65 -9 0 -16 5 -16 10 0 6 -9 10 -20 10 -12 0 -31 6 -43 14 -33 20
-117 29 -117 12z"></path>
            <path
                d="M9785 8177 c-22 -7 -51 -20 -65 -29 -13 -10 -28 -18 -32 -18 -11 0
-48 -33 -48 -43 0 -5 -7 -15 -15 -24 -23 -23 -1 -44 43 -41 35 2 37 4 150 125
17 19 32 37 32 39 0 6 -21 3 -65 -9z"></path>
            <path
                d="M4098 7933 c-13 -7 -32 -12 -44 -13 -12 0 -33 -11 -48 -25 -15 -14
-41 -32 -59 -41 -18 -9 -42 -27 -54 -40 -12 -13 -26 -24 -31 -24 -15 0 -60
-54 -76 -93 -8 -20 -13 -50 -11 -66 2 -17 -3 -51 -11 -78 -25 -82 -6 -172 47
-218 l22 -20 -8 25 c-4 14 -10 65 -12 113 -4 81 -3 91 16 108 12 11 21 25 21
32 1 7 8 21 18 32 15 18 29 20 122 20 58 0 121 4 142 8 34 7 39 5 91 -45 30
-29 73 -69 97 -88 61 -50 110 -100 110 -111 0 -16 79 -177 90 -184 6 -4 8 -10
5 -15 -3 -5 5 -17 18 -27 12 -10 29 -34 36 -53 8 -19 18 -39 23 -45 13 -15 9
-42 -7 -49 -8 -3 -15 -16 -15 -28 0 -13 -25 -66 -56 -117 -50 -85 -55 -98 -49
-133 10 -58 25 -80 85 -129 86 -70 194 -120 267 -123 53 -3 66 0 109 27 l49
30 -70 20 c-39 11 -83 25 -100 32 -16 8 -43 17 -60 21 -16 4 -34 10 -40 14 -5
4 -28 13 -50 20 -47 15 -62 29 -70 63 -7 27 18 110 42 138 7 8 13 21 13 28 0
6 8 23 17 38 30 46 22 319 -12 383 -11 19 -18 40 -17 47 1 6 -2 14 -8 18 -5 3
-10 17 -10 31 0 32 -45 128 -82 175 -15 20 -28 41 -28 47 0 5 -13 26 -30 47
-16 21 -30 44 -30 51 0 7 -9 18 -20 24 -11 6 -20 15 -20 21 0 18 -94 102 -136
121 -13 6 -24 14 -24 18 0 9 -78 29 -107 27 -13 -1 -33 -7 -45 -14z"></path>
            <path
                d="M9605 6709 c-4 -12 1 -33 13 -52 26 -45 35 -106 16 -114 -7 -3 -14
-18 -14 -33 0 -16 -9 -45 -21 -64 -11 -19 -18 -39 -15 -44 3 -5 -3 -18 -12
-28 -10 -10 -25 -35 -34 -54 -9 -19 -30 -50 -47 -69 -17 -19 -31 -38 -31 -43
0 -13 17 -9 31 8 12 15 15 14 31 -6 22 -28 69 -32 87 -7 7 10 19 16 27 13 8
-3 14 1 14 8 0 7 9 21 20 31 10 9 19 20 19 24 -2 13 14 51 21 51 4 0 12 19 19
43 7 23 17 56 22 73 13 44 11 59 -11 79 -17 16 -18 20 -5 38 21 30 19 71 -5
92 -11 10 -17 22 -14 26 3 5 1 9 -5 9 -5 0 -16 6 -23 13 -7 8 -27 16 -45 20
-26 5 -33 3 -38 -14z"></path>
            <path
                d="M5371 6668 c-7 -24 -17 -48 -22 -54 -6 -7 -12 -27 -14 -45 -6 -55
-16 -78 -36 -84 -10 -4 -20 -14 -20 -23 -11 -116 1 -265 21 -277 5 -3 12 15
15 40 4 25 10 45 14 45 4 0 8 12 9 28 2 26 7 53 17 90 23 89 47 208 52 260 4
50 3 62 -9 62 -9 0 -20 -18 -27 -42z"></path>
            <path
                d="M5450 6645 c9 -11 9 -27 0 -69 -10 -49 -9 -58 12 -103 l23 -48 8 60
c20 152 16 175 -30 175 -21 0 -23 -2 -13 -15z"></path>
            <path
                d="M5423 6333 c-28 -68 -35 -127 -21 -180 11 -46 28 -49 28 -4 0 15 5
32 10 37 6 6 12 32 14 60 3 27 5 54 6 59 11 53 -17 74 -37 28z"></path>
            <path
                d="M5564 6305 c-22 -34 -23 -114 -1 -145 9 -14 17 -20 18 -15 0 6 2 24
4 40 15 118 16 133 6 139 -6 4 -18 -5 -27 -19z"></path>
            <path
                d="M5561 6083 c-19 -74 -21 -156 -5 -205 9 -27 19 -48 23 -48 12 0 32
122 34 205 2 75 1 80 -20 83 -18 3 -24 -4 -32 -35z"></path>
            <path
                d="M5360 6061 c-5 -11 -10 -32 -10 -47 0 -31 38 -94 58 -94 6 0 12 -3
12 -7 0 -5 14 -24 30 -43 29 -34 30 -34 20 -7 -5 16 -14 37 -20 47 -5 10 -12
35 -15 56 -4 30 -49 114 -61 114 -2 0 -8 -9 -14 -19z"></path>
            <path
                d="M9975 5770 c-3 -10 -1 -28 5 -40 6 -11 8 -20 5 -20 -17 0 42 -64 71
-78 39 -18 54 -10 32 15 -9 10 -27 41 -42 70 -30 61 -61 84 -71 53z"></path>
            <path
                d="M8052 5767 c-6 -7 -14 -36 -17 -63 -3 -27 -10 -67 -16 -89 -14 -53 1
-95 33 -94 13 0 17 3 11 6 -15 5 -17 39 -4 47 11 7 25 94 25 149 -1 44 -15 65
-32 44z"></path>
            <path
                d="M9640 5751 c0 -7 6 -19 13 -27 6 -8 17 -20 22 -27 6 -7 17 -28 27
-47 37 -79 89 -130 130 -129 31 0 32 1 10 11 -13 7 -34 35 -46 63 -25 54 -63
113 -88 139 -21 20 -68 32 -68 17z"></path>
            <path
                d="M9016 5714 c-11 -8 -17 -14 -13 -14 3 0 0 -17 -7 -37 -19 -56 -4
-119 31 -128 30 -7 40 -1 25 18 -7 8 -10 41 -7 83 4 82 -2 98 -29 78z"></path>
            <path
                d="M5670 5706 c0 -2 -7 -38 -16 -79 -11 -57 -13 -81 -4 -96 12 -24 35
-29 27 -6 -4 8 -2 17 2 19 5 3 9 27 10 53 1 27 2 55 3 63 3 30 -2 50 -12 50
-5 0 -10 -2 -10 -4z"></path>
            <path
                d="M8269 5683 c-5 -16 -12 -35 -15 -43 -18 -48 -22 -102 -9 -107 14 -4
48 90 52 140 3 43 -13 49 -28 10z"></path>
            <path
                d="M9461 5696 c-19 -23 -17 -67 5 -83 21 -16 34 -17 34 -3 0 6 -5 10
-11 10 -6 0 -9 10 -6 23 2 12 2 33 -2 46 -6 21 -8 22 -20 7z"></path>
            <path
                d="M8825 5661 c-30 -45 -31 -86 -1 -113 27 -25 31 -23 32 20 1 20 4 56
8 79 9 56 -7 63 -39 14z"></path>
            <path
                d="M8352 5657 c-17 -30 -18 -37 -5 -60 14 -27 32 -32 66 -18 17 6 17 8
4 19 -9 7 -14 25 -12 40 3 26 -10 52 -25 52 -5 0 -17 -15 -28 -33z"></path>
            <path
                d="M9198 5654 c-7 -6 28 -80 42 -89 18 -11 50 -14 50 -4 0 5 -4 9 -10 9
-5 0 -10 7 -10 15 0 9 -7 18 -15 21 -8 4 -15 10 -15 16 0 9 -25 38 -33 38 -2
0 -6 -2 -9 -6z"></path>
            <path
                d="M7708 5535 c-54 -53 -65 -78 -48 -110 15 -28 70 -40 70 -16 0 8 12
27 26 42 20 21 26 38 28 76 1 64 -17 66 -76 8z"></path>
            <path
                d="M5752 5564 c4 -3 2 -19 -2 -35 -6 -22 -4 -34 9 -50 18 -22 18 -22 16
22 -4 67 -4 69 -17 69 -6 0 -9 -3 -6 -6z"></path>
            <path d="M10152 5538 c3 -7 18 -14 34 -16 28 -3 28 -3 9 12 -24 19 -48 21 -43
4z"></path>
            <path
                d="M5799 5438 c-25 -108 -10 -238 28 -238 10 0 11 5 4 19 -6 10 -8 21
-4 24 3 4 7 30 9 59 2 29 5 73 8 98 4 47 -7 90 -23 90 -5 0 -15 -24 -22 -52z"></path>
            <path
                d="M9825 5450 c-29 -11 -71 -52 -89 -89 -9 -17 -22 -31 -29 -30 -17 3
-88 -11 -112 -21 -22 -10 -207 -58 -270 -71 -22 -4 -52 -12 -68 -18 -15 -6
-60 -11 -100 -10 -39 0 -85 -4 -102 -8 -46 -13 -127 -8 -162 11 -25 12 -74 17
-215 22 -247 8 -261 9 -278 16 -8 3 -51 13 -95 23 -74 16 -130 33 -181 57 -12
5 -32 8 -45 6 -19 -2 -24 -9 -24 -33 -1 -58 98 -130 227 -168 56 -17 143 -35
168 -36 26 -1 105 -9 105 -10 0 -1 41 -2 90 -2 81 0 160 6 160 11 0 2 9 4 20
5 61 8 86 15 100 29 14 14 20 14 43 2 37 -18 79 -28 130 -32 23 -1 49 -8 58
-15 11 -9 20 -9 37 -1 12 6 47 16 77 23 30 6 70 18 89 25 18 8 43 16 55 18 44
9 225 75 236 86 17 18 134 63 170 65 23 2 47 8 53 14 6 6 19 11 29 11 20 0 38
36 30 60 -13 37 -75 72 -107 60z"></path>
            <path
                d="M5930 5195 c-11 -14 -15 -53 -11 -121 1 -24 21 -52 39 -56 9 -2 14
18 18 74 6 99 -13 143 -46 103z"></path>
            <path
                d="M6040 4992 c0 -31 28 -67 60 -77 23 -7 44 5 22 12 -7 3 -21 25 -32
49 -23 50 -50 59 -50 16z"></path>
            <path
                d="M6313 4767 c-26 -34 31 -117 80 -117 17 0 17 1 3 16 -9 8 -16 22 -16
30 0 8 -4 14 -9 14 -5 0 -14 14 -21 30 -15 37 -25 44 -37 27z"></path>
            <path
                d="M6581 4642 c-5 -10 -6 -24 -1 -32 4 -7 6 -19 3 -26 -5 -14 39 -64 58
-64 6 0 8 7 5 17 -4 9 -9 32 -12 52 -11 66 -34 89 -53 53z"></path>
            <path d="M10466 4632 l-19 -27 24 22 c12 12 21 24 18 27 -2 2 -13 -8 -23 -22z"></path>
            <path
                d="M6929 4518 c-3 -47 2 -94 15 -128 30 -80 38 -106 38 -122 -1 -10 3
-18 9 -18 5 0 9 -6 9 -14 0 -17 32 -80 43 -84 4 -2 7 -8 7 -13 0 -15 33 -50
63 -65 25 -13 40 -3 17 11 -5 3 -10 17 -10 30 0 13 -4 27 -10 30 -5 3 -10 14
-10 25 0 10 -7 21 -16 24 -8 3 -12 11 -9 17 4 5 1 18 -7 27 -8 9 -24 44 -36
77 -13 33 -31 78 -42 100 -10 22 -24 57 -30 77 -14 45 -29 58 -31 26z"></path>
            <path
                d="M6790 4515 c0 -8 -4 -15 -10 -15 -5 0 -10 -12 -10 -26 0 -30 31 -127
43 -132 4 -2 7 -9 7 -15 1 -17 32 -52 54 -60 15 -6 17 -4 11 10 -5 10 -10 33
-13 51 -2 18 -8 35 -13 38 -15 9 -10 24 6 18 12 -5 13 -2 6 17 -4 13 -14 24
-21 24 -7 0 -14 7 -15 15 -4 22 -33 90 -39 90 -4 0 -6 -7 -6 -15z"></path>
            <path d="M6690 4485 c-14 -17 -10 -47 8 -53 8 -2 12 8 12 32 0 40 -2 42 -20
21z"></path>
            <path
                d="M7183 4249 c6 -52 30 -98 55 -107 7 -2 4 10 -7 30 -10 18 -22 52 -26
75 -10 66 -30 67 -22 2z"></path>
            <path
                d="M7506 4108 c-16 -78 -15 -87 17 -156 11 -24 134 -128 142 -120 2 2
-11 26 -29 53 -33 52 -38 63 -77 178 -23 68 -45 86 -53 45z"></path>
            <path
                d="M8898 3928 c-9 -18 -21 -44 -28 -59 -19 -43 -15 -119 10 -172 28 -59
40 -67 40 -28 0 16 -5 33 -10 36 -6 4 -8 10 -5 14 2 5 7 37 11 72 3 35 8 67
11 71 2 4 7 28 10 53 6 55 -15 63 -39 13z"></path>
            <path
                d="M10705 2450 c3 -5 11 -10 16 -10 6 0 7 5 4 10 -3 6 -11 10 -16 10 -6
0 -7 -4 -4 -10z"></path>
            <path d="M8798 14283 c6 -2 18 -2 25 0 6 3 1 5 -13 5 -14 0 -19 -2 -12 -5z"></path>
            <path
                d="M10950 13082 c0 -17 -32 -52 -47 -52 -11 0 -10 -7 2 -30 19 -36 24
-38 18 -6 -4 19 0 24 27 29 27 6 30 10 25 29 -9 28 -25 47 -25 30z"></path>
            <path d="M4755 12960 c-3 -6 1 -7 9 -4 18 7 21 14 7 14 -6 0 -13 -4 -16 -10z"></path>
            <path
                d="M1053 253 c-3 -10 -13 -36 -23 -58 -49 -109 -80 -184 -80 -191 0 -2
8 -4 19 -4 14 0 23 14 35 57 10 32 22 69 27 83 13 37 37 130 32 130 -2 0 -6
-8 -10 -17z"></path>
        </g>
    </svg>
    <style>@media (prefers-color-scheme: light) { :root { filter: none; } }
        @media (prefers-color-scheme: dark) { :root { filter: invert(100%); } }
</style>
</svg>